<?xml version="1.0" encoding="UTF-8"?>
<!DOCTYPE svg PUBLIC "-//W3C//DTD SVG 1.1//EN" "http://www.w3.org/Graphics/SVG/1.1/DTD/svg11.dtd">
<svg xmlns="http://www.w3.org/2000/svg" version="1.1" width="169px" height="44px" style="shape-rendering:geometricPrecision; text-rendering:geometricPrecision; image-rendering:optimizeQuality; fill-rule:evenodd; clip-rule:evenodd" xmlns:xlink="http://www.w3.org/1999/xlink">
<g><path style="opacity:0.004" fill="#fefffe" d="M 28.5,-0.5 C 28.8333,-0.5 29.1667,-0.5 29.5,-0.5C 29.3147,0.170143 28.9813,0.170143 28.5,-0.5 Z"/></g>
<g><path style="opacity:0.004" fill="#fefffe" d="M 36.5,-0.5 C 36.8333,-0.5 37.1667,-0.5 37.5,-0.5C 37.3147,0.170143 36.9813,0.170143 36.5,-0.5 Z"/></g>
<g><path style="opacity:0.004" fill="#fefffe" d="M 121.5,-0.5 C 121.833,-0.5 122.167,-0.5 122.5,-0.5C 122.315,0.170143 121.981,0.170143 121.5,-0.5 Z"/></g>
<g><path style="opacity:0.004" fill="#fefffe" d="M 21.5,0.5 C 22.8333,1.16667 22.8333,1.16667 21.5,0.5 Z"/></g>
<g><path style="opacity:0.004" fill="#fefffe" d="M 58.5,0.5 C 59.8333,1.16667 59.8333,1.16667 58.5,0.5 Z"/></g>
<g><path style="opacity:0.004" fill="#fefffe" d="M 67.5,0.5 C 68.8333,1.16667 68.8333,1.16667 67.5,0.5 Z"/></g>
<g><path style="opacity:0.004" fill="#00fffe" d="M 89.5,0.5 C 90.8333,1.16667 90.8333,1.16667 89.5,0.5 Z"/></g>
<g><path style="opacity:0.004" fill="#fefffe" d="M 105.5,0.5 C 106.833,1.16667 106.833,1.16667 105.5,0.5 Z"/></g>
<g><path style="opacity:0.004" fill="#fefffe" d="M 124.5,0.5 C 125.833,1.16667 125.833,1.16667 124.5,0.5 Z"/></g>
<g><path style="opacity:0.004" fill="#fefffe" d="M 43.5,1.5 C 44.8333,2.16667 44.8333,2.16667 43.5,1.5 Z"/></g>
<g><path style="opacity:0.004" fill="#fefffe" d="M 93.5,1.5 C 94.8333,2.16667 94.8333,2.16667 93.5,1.5 Z"/></g>
<g><path style="opacity:0.004" fill="#fefffe" d="M 10.5,2.5 C 11.8333,3.16667 11.8333,3.16667 10.5,2.5 Z"/></g>
<g><path style="opacity:0.004" fill="#fefffe" d="M 124.5,2.5 C 125.833,3.16667 125.833,3.16667 124.5,2.5 Z"/></g>
<g><path style="opacity:0.004" fill="#fefffe" d="M 137.5,2.5 C 138.833,3.16667 138.833,3.16667 137.5,2.5 Z"/></g>
<g><path style="opacity:0.004" fill="#fefffe" d="M 25.5,3.5 C 26.8333,4.16667 26.8333,4.16667 25.5,3.5 Z"/></g>
<g><path style="opacity:0.004" fill="#fefffe" d="M 152.5,3.5 C 153.833,4.16667 153.833,4.16667 152.5,3.5 Z"/></g>
<g><path style="opacity:0.004" fill="#fefffe" d="M 159.5,3.5 C 160.833,4.16667 160.833,4.16667 159.5,3.5 Z"/></g>
<g><path style="opacity:0.004" fill="#fefffe" d="M 19.5,4.5 C 20.8333,5.16667 20.8333,5.16667 19.5,4.5 Z"/></g>
<g><path style="opacity:0.004" fill="#fefffe" d="M 46.5,6.5 C 47.8333,7.16667 47.8333,7.16667 46.5,6.5 Z"/></g>
<g><path style="opacity:0.004" fill="#fefffe" d="M 109.5,6.5 C 110.833,7.16667 110.833,7.16667 109.5,6.5 Z"/></g>
<g><path style="opacity:0.004" fill="#fefffe" d="M 24.5,9.5 C 23.8333,10.1667 23.8333,10.1667 24.5,9.5 Z"/></g>
<g><path style="opacity:1" fill="#13f843" d="M 31.5,9.5 C 29.8212,9.28519 28.8212,9.95186 28.5,11.5C 27.5,10.8333 26.5,10.1667 25.5,9.5C 25.1667,9.5 24.8333,9.5 24.5,9.5C 24.7828,8.71087 25.2828,8.0442 26,7.5C 27.9483,8.10936 29.7816,8.77602 31.5,9.5 Z"/></g>
<g><path style="opacity:0.004" fill="#fefefe" d="M 31.5,10.5 C 32.8333,11.1667 32.8333,11.1667 31.5,10.5 Z"/></g>
<g><path style="opacity:1" fill="#22e564" d="M 19.5,10.5 C 19.1667,10.5 18.8333,10.5 18.5,10.5C 16.8008,10.3398 15.1341,10.5065 13.5,11C 12.4019,11.7697 12.4019,12.603 13.5,13.5C 10.7524,13.5983 10.0857,12.5983 11.5,10.5C 14.1667,9.16667 16.8333,9.16667 19.5,10.5 Z"/></g>
<g><path style="opacity:1" fill="#2afb6a" d="M 18.5,10.5 C 18.8333,10.5 19.1667,10.5 19.5,10.5C 22.8845,11.244 23.2178,12.5774 20.5,14.5C 20.1667,14.5 19.8333,14.5 19.5,14.5C 19.1667,13.1667 18.8333,11.8333 18.5,10.5 Z"/></g>
<g><path style="opacity:0.004" fill="#fefffe" d="M 49.5,11.5 C 50.8333,12.1667 50.8333,12.1667 49.5,11.5 Z"/></g>
<g><path style="opacity:1" fill="#02fc52" d="M 94.5,10.5 C 96.1765,11.1834 96.8432,12.5168 96.5,14.5C 95.8333,14.5 95.1667,14.5 94.5,14.5C 94.5,13.1667 94.5,11.8333 94.5,10.5 Z"/></g>
<g><path style="opacity:1" fill="#2fe763" d="M 93.5,10.5 C 94.5676,9.56552 95.901,9.23219 97.5,9.5C 98.4682,11.6074 98.8016,13.9407 98.5,16.5C 98.1667,16.5 97.8333,16.5 97.5,16.5C 96.6618,16.1583 96.3284,15.4916 96.5,14.5C 96.8432,12.5168 96.1765,11.1834 94.5,10.5C 94.1667,10.5 93.8333,10.5 93.5,10.5 Z"/></g>
<g><path style="opacity:0.004" fill="#fefffe" d="M 106.5,12.5 C 105.833,11.1667 105.833,11.1667 106.5,12.5 Z"/></g>
<g><path style="opacity:1" fill="#0afb54" d="M 18.5,10.5 C 18.8333,11.8333 19.1667,13.1667 19.5,14.5C 18.1667,14.1667 16.8333,13.8333 15.5,13.5C 14.8333,13.5 14.1667,13.5 13.5,13.5C 12.4019,12.603 12.4019,11.7697 13.5,11C 15.1341,10.5065 16.8008,10.3398 18.5,10.5 Z"/></g>
<g><path style="opacity:1" fill="#27f566" d="M 25.5,9.5 C 26.5,10.1667 27.5,10.8333 28.5,11.5C 28.5,12.5 28.5,13.5 28.5,14.5C 27.8826,14.3893 27.3826,14.056 27,13.5C 26.51,14.7932 26.3433,16.1266 26.5,17.5C 26.5,20.1667 26.5,22.8333 26.5,25.5C 26.5,27.5 26.5,29.5 26.5,31.5C 25.5084,24.3524 25.175,17.0191 25.5,9.5 Z"/></g>
<g><path style="opacity:0.004" fill="#fefffe" d="M 106.5,12.5 C 107.833,13.1667 107.833,13.1667 106.5,12.5 Z"/></g>
<g><path style="opacity:0.004" fill="#fefefe" d="M 134.5,13.5 C 133.833,12.1667 133.833,12.1667 134.5,13.5 Z"/></g>
<g><path style="opacity:0.392" fill="#047a1a" d="M 139.5,13.5 C 138.209,13.2627 137.209,13.596 136.5,14.5C 135.833,14.8333 135.167,15.1667 134.5,15.5C 134.5,14.8333 134.5,14.1667 134.5,13.5C 136.284,12.2801 137.95,12.2801 139.5,13.5 Z"/></g>
<g><path style="opacity:0.004" fill="#fefffe" d="M 149.5,12.5 C 150.833,13.1667 150.833,13.1667 149.5,12.5 Z"/></g>
<g><path style="opacity:0.004" fill="#fefffe" d="M 152.5,12.5 C 153.833,13.1667 153.833,13.1667 152.5,12.5 Z"/></g>
<g><path style="opacity:1" fill="#26ea62" d="M 8.5,12.5 C 8.56395,13.3652 8.89728,14.3652 9.5,15.5C 9.5,16.1667 9.5,16.8333 9.5,17.5C 8.77765,16.4489 7.77765,15.7822 6.5,15.5C 6.5,15.1667 6.5,14.8333 6.5,14.5C 6.83333,13.5 7.5,12.8333 8.5,12.5 Z"/></g>
<g><path style="opacity:0.906" fill="#27bd4f" d="M 11.5,10.5 C 10.0857,12.5983 10.7524,13.5983 13.5,13.5C 14.1667,13.5 14.8333,13.5 15.5,13.5C 15.5,13.8333 15.5,14.1667 15.5,14.5C 13.3792,14.3253 11.3792,14.6586 9.5,15.5C 8.89728,14.3652 8.56395,13.3652 8.5,12.5C 8.97306,11.0937 9.97306,10.427 11.5,10.5 Z"/></g>
<g><path style="opacity:0.004" fill="#fefffe" d="M 34.5,13.5 C 35.8333,14.1667 35.8333,14.1667 34.5,13.5 Z"/></g>
<g><path style="opacity:1" fill="#42d16c" d="M 71.5,9.5 C 72.9187,8.54885 74.5853,8.21552 76.5,8.5C 76.5,11.1667 76.5,13.8333 76.5,16.5C 75.8333,14.1667 75.1667,11.8333 74.5,9.5C 73.5,9.5 72.5,9.5 71.5,9.5 Z"/></g>
<g><path style="opacity:0.004" fill="#fefffe" d="M 161.5,13.5 C 162.833,14.1667 162.833,14.1667 161.5,13.5 Z"/></g>
<g><path style="opacity:1" fill="#3cf16f" d="M 15.5,14.5 C 15.5,14.1667 15.5,13.8333 15.5,13.5C 16.8333,13.8333 18.1667,14.1667 19.5,14.5C 19.8333,14.5 20.1667,14.5 20.5,14.5C 18.9991,16.9572 17.3324,16.9572 15.5,14.5 Z"/></g>
<g><path style="opacity:1" fill="#03fc60" d="M 28.5,14.5 C 28.5,15.5 28.5,16.5 28.5,17.5C 27.8333,17.5 27.1667,17.5 26.5,17.5C 26.3433,16.1266 26.51,14.7932 27,13.5C 27.3826,14.056 27.8826,14.3893 28.5,14.5 Z"/></g>
<g><path style="opacity:1" fill="#36db6d" d="M 31.5,9.5 C 31.5,9.83333 31.5,10.1667 31.5,10.5C 30.5104,16.31 30.1771,22.31 30.5,28.5C 29.8333,22.8333 29.1667,17.1667 28.5,11.5C 28.8212,9.95186 29.8212,9.28519 31.5,9.5 Z"/></g>
<g><path style="opacity:0.004" fill="#fefffe" d="M 31.5,14.5 C 32.8333,15.1667 32.8333,15.1667 31.5,14.5 Z"/></g>
<g><path style="opacity:0.435" fill="#3dd06f" d="M 97.5,9.5 C 95.901,9.23219 94.5676,9.56552 93.5,10.5C 93.5,13.5 93.5,16.5 93.5,19.5C 93.1667,19.5 92.8333,19.5 92.5,19.5C 92.5,15.8333 92.5,12.1667 92.5,8.5C 94.4147,8.21552 96.0813,8.54885 97.5,9.5 Z"/></g>
<g><path style="opacity:1" fill="#08fb5d" d="M 94.5,14.5 C 95.1667,14.5 95.8333,14.5 96.5,14.5C 96.3284,15.4916 96.6618,16.1583 97.5,16.5C 97.5,17.1667 97.8333,17.5 98.5,17.5C 98.5,18.8333 98.5,20.1667 98.5,21.5C 98.1667,21.5 97.8333,21.5 97.5,21.5C 97.5,21.1667 97.5,20.8333 97.5,20.5C 97.5,18.5 96.5,17.5 94.5,17.5C 94.5,16.5 94.5,15.5 94.5,14.5 Z"/></g>
<g><path style="opacity:1" fill="#15f85a" d="M 71.5,9.5 C 72.5,9.5 73.5,9.5 74.5,9.5C 74.5,11.8333 74.5,14.1667 74.5,16.5C 73.5119,21.6405 73.1786,26.9738 73.5,32.5C 73.1667,32.5 72.8333,32.5 72.5,32.5C 72.8235,25.9779 72.4902,19.6446 71.5,13.5C 71.5,12.1667 71.5,10.8333 71.5,9.5 Z"/></g>
<g><path style="opacity:0.329" fill="#33c359" d="M 126.5,16.5 C 127.568,15.5655 128.901,15.2322 130.5,15.5C 130.768,17.099 130.434,18.4324 129.5,19.5C 129.5,18.5 129.5,17.5 129.5,16.5C 128.5,16.5 127.5,16.5 126.5,16.5 Z"/></g>
<g><path style="opacity:1" fill="#3ae767" d="M 136.5,14.5 C 135.993,15.8589 134.993,16.8589 133.5,17.5C 133.957,18.2975 134.624,18.6309 135.5,18.5C 135.5,22.1667 135.5,25.8333 135.5,29.5C 135.5,30.1667 135.5,30.8333 135.5,31.5C 134.517,27.7016 134.183,23.7016 134.5,19.5C 133.5,19.5 132.5,19.5 131.5,19.5C 131.5,18.1667 131.5,16.8333 131.5,15.5C 132.5,15.5 133.5,15.5 134.5,15.5C 135.167,15.1667 135.833,14.8333 136.5,14.5 Z"/></g>
<g><path style="opacity:1" fill="#09f551" d="M 139.5,13.5 C 139.5,14.1667 139.5,14.8333 139.5,15.5C 139.5,16.1667 139.5,16.8333 139.5,17.5C 138.662,17.8417 138.328,18.5084 138.5,19.5C 137.609,18.8902 136.609,18.5569 135.5,18.5C 134.624,18.6309 133.957,18.2975 133.5,17.5C 134.993,16.8589 135.993,15.8589 136.5,14.5C 137.209,13.596 138.209,13.2627 139.5,13.5 Z"/></g>
<g><path style="opacity:0.635" fill="#26a23d" d="M 6.5,14.5 C 6.5,14.8333 6.5,15.1667 6.5,15.5C 6.5,15.8333 6.5,16.1667 6.5,16.5C 5.56552,17.5676 5.23219,18.901 5.5,20.5C 4.86137,19.9032 4.52804,19.0698 4.5,18C 4.38655,16.3009 5.05322,15.1342 6.5,14.5 Z"/></g>
<g><path style="opacity:1" fill="#08fd4f" d="M 39.5,16.5 C 41.8568,16.3367 44.1902,16.5034 46.5,17C 45.2625,17.2321 44.2625,17.7321 43.5,18.5C 42.209,18.2627 41.209,18.596 40.5,19.5C 39.448,19.6495 38.448,19.4828 37.5,19C 38.3805,18.2917 39.0472,17.4584 39.5,16.5 Z"/></g>
<g><path style="opacity:1" fill="#0cf954" d="M 65.5,16.5 C 65.7148,18.1788 65.0481,19.1788 63.5,19.5C 61.9581,18.8365 60.2914,18.1698 58.5,17.5C 60.7427,16.5258 63.076,16.1924 65.5,16.5 Z"/></g>
<g><path style="opacity:1" fill="#1cf362" d="M 74.5,9.5 C 75.1667,11.8333 75.8333,14.1667 76.5,16.5C 76.5,16.8333 76.5,17.1667 76.5,17.5C 77.1098,18.391 77.4431,19.391 77.5,20.5C 77.5,20.8333 77.5,21.1667 77.5,21.5C 76.8333,21.5 76.1667,21.5 75.5,21.5C 75.634,19.7085 75.3007,18.0418 74.5,16.5C 74.5,14.1667 74.5,11.8333 74.5,9.5 Z"/></g>
<g><path style="opacity:1" fill="#1cf361" d="M 139.5,15.5 C 140.167,15.5 140.833,15.5 141.5,15.5C 142.278,16.1556 142.944,16.9889 143.5,18C 143.43,18.7648 143.097,19.2648 142.5,19.5C 142.179,17.9519 141.179,17.2852 139.5,17.5C 139.5,16.8333 139.5,16.1667 139.5,15.5 Z"/></g>
<g><path style="opacity:1" fill="#30f471" d="M 151.5,16.5 C 154.304,15.3622 157.304,15.1955 160.5,16C 162.141,17.129 163.141,18.629 163.5,20.5C 162.833,20.1667 162.167,19.8333 161.5,19.5C 159.998,16.9781 158.665,16.9781 157.5,19.5C 156.5,19.5 155.5,19.5 154.5,19.5C 154.5,19.1667 154.5,18.8333 154.5,18.5C 155.043,18.44 155.376,18.1067 155.5,17.5C 154.311,16.5713 152.978,16.238 151.5,16.5 Z"/></g>
<g><path style="opacity:1" fill="#2be769" d="M 6.5,16.5 C 6.2525,18.8583 6.91917,20.8583 8.5,22.5C 6.97306,22.573 5.97306,21.9063 5.5,20.5C 5.23219,18.901 5.56552,17.5676 6.5,16.5 Z"/></g>
<g><path style="opacity:1" fill="#32f26b" d="M 6.5,15.5 C 7.77765,15.7822 8.77765,16.4489 9.5,17.5C 12.2521,18.5115 14.9188,19.5115 17.5,20.5C 14.8127,20.3359 12.146,20.5026 9.5,21C 11.5018,22.0192 13.5018,22.8525 15.5,23.5C 15.5,23.8333 15.5,24.1667 15.5,24.5C 12.8478,24.5905 10.5145,23.9238 8.5,22.5C 6.91917,20.8583 6.2525,18.8583 6.5,16.5C 6.5,16.1667 6.5,15.8333 6.5,15.5 Z"/></g>
<g><path style="opacity:1" fill="#16f263" d="M 28.5,11.5 C 29.1667,17.1667 29.8333,22.8333 30.5,28.5C 30.5,28.8333 30.5,29.1667 30.5,29.5C 28.8235,28.8166 28.1568,27.4832 28.5,25.5C 28.5,22.8333 28.5,20.1667 28.5,17.5C 28.5,16.5 28.5,15.5 28.5,14.5C 28.5,13.5 28.5,12.5 28.5,11.5 Z"/></g>
<g><path style="opacity:1" fill="#37e96a" d="M 39.5,16.5 C 39.0472,17.4584 38.3805,18.2917 37.5,19C 38.448,19.4828 39.448,19.6495 40.5,19.5C 40.5,19.8333 40.5,20.1667 40.5,20.5C 37.9448,23.4774 36.2781,22.9774 35.5,19C 36.3557,17.4053 37.6891,16.572 39.5,16.5 Z"/></g>
<g><path style="opacity:1" fill="#14ec53" d="M 39.5,16.5 C 42.1667,15.1667 44.8333,15.1667 47.5,16.5C 47.5,17.1667 47.5,17.8333 47.5,18.5C 47.6716,19.4916 47.3382,20.1583 46.5,20.5C 46.5,19.8333 46.1667,19.5 45.5,19.5C 45.1583,18.6618 44.4916,18.3284 43.5,18.5C 44.2625,17.7321 45.2625,17.2321 46.5,17C 44.1902,16.5034 41.8568,16.3367 39.5,16.5 Z"/></g>
<g><path style="opacity:1" fill="#25ec60" d="M 65.5,16.5 C 63.076,16.1924 60.7427,16.5258 58.5,17.5C 60.2914,18.1698 61.9581,18.8365 63.5,19.5C 62.1266,19.3433 60.7932,19.51 59.5,20C 58.4019,20.7697 58.4019,21.603 59.5,22.5C 59.5,22.8333 59.5,23.1667 59.5,23.5C 58.5,23.1667 57.8333,22.5 57.5,21.5C 57.7373,20.209 57.404,19.209 56.5,18.5C 56.8333,17.8333 57.1667,17.1667 57.5,16.5C 60.1667,15.1667 62.8333,15.1667 65.5,16.5 Z"/></g>
<g><path style="opacity:1" fill="#58e77d" d="M 65.5,16.5 C 66.7562,16.4614 67.7562,16.9614 68.5,18C 67.3816,19.0736 66.3816,20.2402 65.5,21.5C 64.4777,21.1445 63.811,20.4778 63.5,19.5C 65.0481,19.1788 65.7148,18.1788 65.5,16.5 Z"/></g>
<g><path style="opacity:1" fill="#06fb56" d="M 74.5,16.5 C 75.3007,18.0418 75.634,19.7085 75.5,21.5C 75.5,22.1667 75.5,22.8333 75.5,23.5C 74.8333,26.5 74.1667,29.5 73.5,32.5C 73.1786,26.9738 73.5119,21.6405 74.5,16.5 Z"/></g>
<g><path style="opacity:1" fill="#32ef70" d="M 85.5,16.5 C 84.8333,16.5 84.1667,16.5 83.5,16.5C 77.8542,17.0878 77.5208,17.7544 82.5,18.5C 82.5,19.1667 82.8333,19.5 83.5,19.5C 83.5,20.1667 83.5,20.8333 83.5,21.5C 82.5178,20.8592 81.5178,20.1925 80.5,19.5C 79.5832,20.1272 78.5832,20.4606 77.5,20.5C 77.4431,19.391 77.1098,18.391 76.5,17.5C 79.3728,15.3732 82.3728,15.0399 85.5,16.5 Z"/></g>
<g><path style="opacity:1" fill="#07fa5e" d="M 83.5,16.5 C 83.1667,17.1667 82.8333,17.8333 82.5,18.5C 77.5208,17.7544 77.8542,17.0878 83.5,16.5 Z"/></g>
<g><path style="opacity:1" fill="#04fb58" d="M 83.5,16.5 C 84.1667,16.5 84.8333,16.5 85.5,16.5C 85.5,17.1667 85.5,17.8333 85.5,18.5C 85.1583,19.3382 84.4916,19.6716 83.5,19.5C 82.8333,19.5 82.5,19.1667 82.5,18.5C 82.8333,17.8333 83.1667,17.1667 83.5,16.5 Z"/></g>
<g><path style="opacity:1" fill="#00fe55" d="M 94.5,17.5 C 96.5,17.5 97.5,18.5 97.5,20.5C 96.5,20.5 95.5,20.5 94.5,20.5C 94.5,19.5 94.5,18.5 94.5,17.5 Z"/></g>
<g><path style="opacity:1" fill="#2cf069" d="M 103.5,16.5 C 104.5,16.5 105.5,16.5 106.5,16.5C 107.833,16.5 108.5,17.1667 108.5,18.5C 107.833,18.5 107.167,18.5 106.5,18.5C 105.811,17.2264 104.977,17.2264 104,18.5C 103.536,17.9056 103.369,17.2389 103.5,16.5 Z"/></g>
<g><path style="opacity:1" fill="#4ae772" d="M 117.5,16.5 C 116.5,16.5 115.5,16.5 114.5,16.5C 114.5,17.8333 114.5,19.1667 114.5,20.5C 111.184,14.904 112.184,13.5707 117.5,16.5 Z"/></g>
<g><path style="opacity:1" fill="#1ff460" d="M 117.5,16.5 C 117.5,17.8333 117.5,19.1667 117.5,20.5C 116.549,21.9187 116.216,23.5853 116.5,25.5C 115.069,24.2196 114.402,22.5529 114.5,20.5C 114.5,19.1667 114.5,17.8333 114.5,16.5C 115.5,16.5 116.5,16.5 117.5,16.5 Z"/></g>
<g><path style="opacity:0.004" fill="#fefffe" d="M 122.5,17.5 C 123.833,18.1667 123.833,18.1667 122.5,17.5 Z"/></g>
<g><path style="opacity:1" fill="#2ff16a" d="M 126.5,16.5 C 127.5,16.5 128.5,16.5 129.5,16.5C 129.5,17.5 129.5,18.5 129.5,19.5C 129.737,20.791 129.404,21.791 128.5,22.5C 128.888,16.3008 127.888,15.9675 125.5,21.5C 125.167,21.5 124.833,21.5 124.5,21.5C 124.796,19.597 125.463,17.9303 126.5,16.5 Z"/></g>
<g><path style="opacity:1" fill="#2cf469" d="M 139.5,17.5 C 141.179,17.2852 142.179,17.9519 142.5,19.5C 141.833,19.5 141.167,19.5 140.5,19.5C 139.521,22.6248 139.187,25.9581 139.5,29.5C 139.167,29.5 138.833,29.5 138.5,29.5C 138.5,29.1667 138.5,28.8333 138.5,28.5C 138.5,25.5 138.5,22.5 138.5,19.5C 138.328,18.5084 138.662,17.8417 139.5,17.5 Z"/></g>
<g><path style="opacity:1" fill="#10f758" d="M 151.5,16.5 C 152.978,16.238 154.311,16.5713 155.5,17.5C 155.376,18.1067 155.043,18.44 154.5,18.5C 152.821,18.7148 151.821,18.0481 151.5,16.5 Z"/></g>
<g><path style="opacity:0.004" fill="#fefffe" d="M 20.5,18.5 C 21.8333,19.1667 21.8333,19.1667 20.5,18.5 Z"/></g>
<g><path style="opacity:0.969" fill="#3cee73" d="M 43.5,18.5 C 44.4916,18.3284 45.1583,18.6618 45.5,19.5C 45.5,19.8333 45.5,20.1667 45.5,20.5C 43.8333,19.1667 42.1667,19.1667 40.5,20.5C 40.5,20.1667 40.5,19.8333 40.5,19.5C 41.209,18.596 42.209,18.2627 43.5,18.5 Z"/></g>
<g><path style="opacity:0.733" fill="#45de76" d="M 57.5,16.5 C 57.1667,17.1667 56.8333,17.8333 56.5,18.5C 55.1667,19.8333 55.1667,21.1667 56.5,22.5C 56.5569,23.609 56.8902,24.609 57.5,25.5C 55.0503,25.1257 54.0503,23.6257 54.5,21C 54.0503,18.3743 55.0503,16.8743 57.5,16.5 Z"/></g>
<g><path style="opacity:1" fill="#11f657" d="M 56.5,18.5 C 57.404,19.209 57.7373,20.209 57.5,21.5C 56.8333,21.5 56.5,21.8333 56.5,22.5C 55.1667,21.1667 55.1667,19.8333 56.5,18.5 Z"/></g>
<g><path style="opacity:1" fill="#31ee6e" d="M 106.5,16.5 C 105.5,16.5 104.5,16.5 103.5,16.5C 99.9952,16.6941 99.6618,17.6941 102.5,19.5C 100.938,19.7329 99.6049,20.3995 98.5,21.5C 98.5,20.1667 98.5,18.8333 98.5,17.5C 98.5,17.1667 98.5,16.8333 98.5,16.5C 101.272,15.2329 103.939,15.2329 106.5,16.5 Z"/></g>
<g><path style="opacity:1" fill="#04fa56" d="M 103.5,16.5 C 103.369,17.2389 103.536,17.9056 104,18.5C 104.977,17.2264 105.811,17.2264 106.5,18.5C 105.432,19.4345 104.099,19.7678 102.5,19.5C 99.6618,17.6941 99.9952,16.6941 103.5,16.5 Z"/></g>
<g><path style="opacity:1" fill="#0df85b" d="M 135.5,18.5 C 136.609,18.5569 137.609,18.8902 138.5,19.5C 138.5,22.5 138.5,25.5 138.5,28.5C 137.391,28.5569 136.391,28.8902 135.5,29.5C 135.5,25.8333 135.5,22.1667 135.5,18.5 Z"/></g>
<g><path style="opacity:1" fill="#39f570" d="M 151.5,16.5 C 151.821,18.0481 152.821,18.7148 154.5,18.5C 154.5,18.8333 154.5,19.1667 154.5,19.5C 153.391,19.5569 152.391,19.8902 151.5,20.5C 150.791,19.596 149.791,19.2627 148.5,19.5C 148.5,17.5 149.5,16.5 151.5,16.5 Z"/></g>
<g><path style="opacity:1" fill="#17fa63" d="M 161.5,19.5 C 160.06,21.4199 160.393,23.0866 162.5,24.5C 163.176,23.3984 163.842,22.3984 164.5,21.5C 164.5,22.8333 164.5,24.1667 164.5,25.5C 163.833,25.5 163.167,25.5 162.5,25.5C 160.833,25.5 159.167,25.5 157.5,25.5C 157.5,24.8333 157.5,24.1667 157.5,23.5C 157.5,23.1667 157.5,22.8333 157.5,22.5C 158.625,21.6522 158.625,20.6522 157.5,19.5C 158.665,16.9781 159.998,16.9781 161.5,19.5 Z"/></g>
<g><path style="opacity:0.004" fill="#fefffe" d="M 0.5,19.5 C 1.83333,20.1667 1.83333,20.1667 0.5,19.5 Z"/></g>
<g><path style="opacity:1" fill="#04fc5b" d="M 85.5,18.5 C 86.4511,19.9187 86.7845,21.5853 86.5,23.5C 85.8333,23.5 85.1667,23.5 84.5,23.5C 84.6716,22.5084 84.3382,21.8417 83.5,21.5C 83.5,20.8333 83.5,20.1667 83.5,19.5C 84.4916,19.6716 85.1583,19.3382 85.5,18.5 Z"/></g>
<g><path style="opacity:1" fill="#32ec72" d="M 85.5,16.5 C 86.4584,16.9528 87.2917,17.6195 88,18.5C 88.4986,22.1516 88.6653,25.8183 88.5,29.5C 87.8333,29.5 87.1667,29.5 86.5,29.5C 86.5,27.5 86.5,25.5 86.5,23.5C 86.7845,21.5853 86.4511,19.9187 85.5,18.5C 85.5,17.8333 85.5,17.1667 85.5,16.5 Z"/></g>
<g><path style="opacity:1" fill="#18f765" d="M 106.5,18.5 C 107.167,18.5 107.833,18.5 108.5,18.5C 108.5,19.1667 108.5,19.8333 108.5,20.5C 107.833,20.8333 107.167,21.1667 106.5,21.5C 105.833,21.1667 105.167,20.8333 104.5,20.5C 103.508,20.6716 102.842,20.3382 102.5,19.5C 104.099,19.7678 105.432,19.4345 106.5,18.5 Z"/></g>
<g><path style="opacity:1" fill="#3be976" d="M 117.5,16.5 C 119.204,19.9385 120.538,23.6052 121.5,27.5C 119.953,26.2318 118.953,24.5652 118.5,22.5C 118.672,21.5084 118.338,20.8417 117.5,20.5C 117.5,19.1667 117.5,17.8333 117.5,16.5 Z"/></g>
<g><path style="opacity:1" fill="#09fa58" d="M 128.5,22.5 C 127.833,22.8333 127.167,23.1667 126.5,23.5C 126.167,22.8333 125.833,22.1667 125.5,21.5C 127.888,15.9675 128.888,16.3008 128.5,22.5 Z"/></g>
<g><path style="opacity:0.086" fill="#6eeb96" d="M 141.5,15.5 C 142.873,15.3433 144.207,15.51 145.5,16C 144.62,17.3561 144.286,18.8561 144.5,20.5C 142.901,20.7678 141.568,20.4345 140.5,19.5C 141.167,19.5 141.833,19.5 142.5,19.5C 143.097,19.2648 143.43,18.7648 143.5,18C 142.944,16.9889 142.278,16.1556 141.5,15.5 Z"/></g>
<g><path style="opacity:0.004" fill="#fdfffe" d="M 164.5,19.5 C 165.833,20.1667 165.833,20.1667 164.5,19.5 Z"/></g>
<g><path style="opacity:1" fill="#06fc56" d="M 17.5,20.5 C 17.5,21.1667 17.5,21.8333 17.5,22.5C 17.1583,23.3382 16.4916,23.6716 15.5,23.5C 13.5018,22.8525 11.5018,22.0192 9.5,21C 12.146,20.5026 14.8127,20.3359 17.5,20.5 Z"/></g>
<g><path style="opacity:1" fill="#06fd59" d="M 26.5,17.5 C 27.1667,17.5 27.8333,17.5 28.5,17.5C 28.5,20.1667 28.5,22.8333 28.5,25.5C 27.8333,25.5 27.1667,25.5 26.5,25.5C 26.5,22.8333 26.5,20.1667 26.5,17.5 Z"/></g>
<g><path style="opacity:1" fill="#02fe5d" d="M 94.5,20.5 C 95.5,20.5 96.5,20.5 97.5,20.5C 97.5,20.8333 97.5,21.1667 97.5,21.5C 96.6618,21.8417 96.3284,22.5084 96.5,23.5C 95.8333,23.5 95.1667,23.5 94.5,23.5C 94.5,22.5 94.5,21.5 94.5,20.5 Z"/></g>
<g><path style="opacity:0.545" fill="#56e37e" d="M 108.5,18.5 C 109.117,18.6107 109.617,18.944 110,19.5C 110.808,23.0267 110.641,26.3601 109.5,29.5C 109.81,26.2869 109.477,23.2869 108.5,20.5C 108.5,19.8333 108.5,19.1667 108.5,18.5 Z"/></g>
<g><path style="opacity:1" fill="#08fa50" d="M 161.5,19.5 C 162.167,19.8333 162.833,20.1667 163.5,20.5C 163.833,20.5 164.167,20.5 164.5,20.5C 164.5,20.8333 164.5,21.1667 164.5,21.5C 163.842,22.3984 163.176,23.3984 162.5,24.5C 160.393,23.0866 160.06,21.4199 161.5,19.5 Z"/></g>
<g><path style="opacity:1" fill="#38ee83" d="M 21.5,22.5 C 20.1667,22.5 18.8333,22.5 17.5,22.5C 17.5,21.8333 17.5,21.1667 17.5,20.5C 19.0655,19.9394 20.3989,20.6061 21.5,22.5 Z"/></g>
<g><path style="opacity:1" fill="#08fb59" d="M 148.5,19.5 C 149.791,19.2627 150.791,19.596 151.5,20.5C 151.5,21.5 151.5,22.5 151.5,23.5C 150.391,23.5569 149.391,23.8902 148.5,24.5C 148.5,22.8333 148.5,21.1667 148.5,19.5 Z"/></g>
<g><path style="opacity:0.757" fill="#4ff997" d="M 154.5,19.5 C 154.047,20.4584 153.381,21.2917 152.5,22C 154.454,22.1618 156.121,22.3285 157.5,22.5C 157.5,22.8333 157.5,23.1667 157.5,23.5C 155.5,23.5 153.5,23.5 151.5,23.5C 151.5,22.5 151.5,21.5 151.5,20.5C 152.391,19.8902 153.391,19.5569 154.5,19.5 Z"/></g>
<g><path style="opacity:1" fill="#03fb51" d="M 47.5,18.5 C 48.4614,20.2646 48.7947,22.2646 48.5,24.5C 47.8333,24.5 47.1667,24.5 46.5,24.5C 46.5,23.1667 46.5,21.8333 46.5,20.5C 47.3382,20.1583 47.6716,19.4916 47.5,18.5 Z"/></g>
<g><path style="opacity:1" fill="#1eef60" d="M 47.5,16.5 C 48.9063,16.9731 49.573,17.9731 49.5,19.5C 49.5,22.8333 49.5,26.1667 49.5,29.5C 48.8333,29.5 48.5,29.1667 48.5,28.5C 48.5,27.1667 48.5,25.8333 48.5,24.5C 48.7947,22.2646 48.4614,20.2646 47.5,18.5C 47.5,17.8333 47.5,17.1667 47.5,16.5 Z"/></g>
<g><path style="opacity:1" fill="#09f865" d="M 57.5,21.5 C 57.8333,22.5 58.5,23.1667 59.5,23.5C 59.5,23.8333 59.5,24.1667 59.5,24.5C 59.5,24.8333 59.5,25.1667 59.5,25.5C 58.8333,25.5 58.1667,25.5 57.5,25.5C 56.8902,24.609 56.5569,23.609 56.5,22.5C 56.5,21.8333 56.8333,21.5 57.5,21.5 Z"/></g>
<g><path style="opacity:1" fill="#44ee77" d="M 104.5,20.5 C 105.167,20.8333 105.833,21.1667 106.5,21.5C 106.736,24.6085 106.403,27.6085 105.5,30.5C 104.833,30.5 104.167,30.5 103.5,30.5C 103.167,30.5 102.833,30.5 102.5,30.5C 105.72,27.8851 106.387,24.5518 104.5,20.5 Z"/></g>
<g><path style="opacity:1" fill="#0df95c" d="M 117.5,20.5 C 118.338,20.8417 118.672,21.5084 118.5,22.5C 117.596,23.209 117.263,24.209 117.5,25.5C 117.167,25.5 116.833,25.5 116.5,25.5C 116.216,23.5853 116.549,21.9187 117.5,20.5 Z"/></g>
<g><path style="opacity:1" fill="#09fb5e" d="M 124.5,21.5 C 124.833,21.5 125.167,21.5 125.5,21.5C 125.833,22.1667 126.167,22.8333 126.5,23.5C 126.737,24.791 126.404,25.791 125.5,26.5C 125.672,25.5084 125.338,24.8417 124.5,24.5C 124.5,23.5 124.5,22.5 124.5,21.5 Z"/></g>
<g><path style="opacity:0.996" fill="#14fa5d" d="M 17.5,22.5 C 18.8333,22.5 20.1667,22.5 21.5,22.5C 22.3382,22.8417 22.6716,23.5084 22.5,24.5C 20.544,22.8249 19.2107,23.1582 18.5,25.5C 17.8333,25.5 17.1667,25.5 16.5,25.5C 16.1667,25.5 15.8333,25.5 15.5,25.5C 15.5,25.1667 15.5,24.8333 15.5,24.5C 15.5,24.1667 15.5,23.8333 15.5,23.5C 16.4916,23.6716 17.1583,23.3382 17.5,22.5 Z"/></g>
<g><path style="opacity:1" fill="#18e150" d="M 22.5,24.5 C 23.1667,24.5 23.5,24.8333 23.5,25.5C 21.64,26.0715 19.9733,26.0715 18.5,25.5C 19.2107,23.1582 20.544,22.8249 22.5,24.5 Z"/></g>
<g><path style="opacity:1" fill="#13f85e" d="M 45.5,19.5 C 46.1667,19.5 46.5,19.8333 46.5,20.5C 46.5,21.8333 46.5,23.1667 46.5,24.5C 46.5,24.8333 46.5,25.1667 46.5,25.5C 46.1667,25.5 45.8333,25.5 45.5,25.5C 44.5946,24.2976 44.5946,22.9643 45.5,21.5C 45.5,21.1667 45.5,20.8333 45.5,20.5C 45.5,20.1667 45.5,19.8333 45.5,19.5 Z"/></g>
<g><path style="opacity:1" fill="#31e868" d="M 59.5,22.5 C 61.099,22.2322 62.4324,22.5655 63.5,23.5C 63.5,23.8333 63.5,24.1667 63.5,24.5C 62.1667,24.5 60.8333,24.5 59.5,24.5C 59.5,24.1667 59.5,23.8333 59.5,23.5C 59.5,23.1667 59.5,22.8333 59.5,22.5 Z"/></g>
<g><path style="opacity:1" fill="#06fd55" d="M 84.5,23.5 C 85.1667,23.5 85.8333,23.5 86.5,23.5C 86.5,25.5 86.5,27.5 86.5,29.5C 85.8333,28.1667 85.1667,26.8333 84.5,25.5C 84.5,24.8333 84.5,24.1667 84.5,23.5 Z"/></g>
<g><path style="opacity:1" fill="#34ee71" d="M 45.5,21.5 C 44.5946,22.9643 44.5946,24.2976 45.5,25.5C 44.2921,26.2341 42.9587,26.5674 41.5,26.5C 40.7893,24.1582 39.456,23.8249 37.5,25.5C 37.1667,25.5 36.8333,25.5 36.5,25.5C 39.1856,23.7261 42.1856,22.3928 45.5,21.5 Z"/></g>
<g><path style="opacity:1" fill="#47ec7b" d="M 63.5,24.5 C 63.5,24.1667 63.5,23.8333 63.5,23.5C 65.3904,23.2965 66.8904,23.9632 68,25.5C 68.7891,27.7116 68.6225,29.7116 67.5,31.5C 67.7845,29.5853 67.4511,27.9187 66.5,26.5C 65.7095,25.5987 64.7095,24.9321 63.5,24.5 Z"/></g>
<g><path style="opacity:1" fill="#48e47c" d="M 71.5,13.5 C 72.4902,19.6446 72.8235,25.9779 72.5,32.5C 73.209,33.404 74.209,33.7373 75.5,33.5C 75.5,30.1667 75.5,26.8333 75.5,23.5C 75.5,22.8333 75.5,22.1667 75.5,21.5C 76.1667,21.5 76.8333,21.5 77.5,21.5C 76.564,25.7352 76.2307,30.0685 76.5,34.5C 74.8333,34.5 73.1667,34.5 71.5,34.5C 71.5,27.5 71.5,20.5 71.5,13.5 Z"/></g>
<g><path style="opacity:0.004" fill="#fefffe" d="M 77.5,24.5 C 78.8333,25.1667 78.8333,25.1667 77.5,24.5 Z"/></g>
<g><path style="opacity:1" fill="#42ef7b" d="M 124.5,21.5 C 124.5,22.5 124.5,23.5 124.5,24.5C 123.766,25.7079 123.433,27.0413 123.5,28.5C 122.508,28.6716 121.842,28.3382 121.5,27.5C 122.5,25.5 123.5,23.5 124.5,21.5 Z"/></g>
<g><path style="opacity:1" fill="#48e882" d="M 128.5,22.5 C 128.02,25.4432 127.02,28.1098 125.5,30.5C 125.5,29.1667 125.5,27.8333 125.5,26.5C 126.404,25.791 126.737,24.791 126.5,23.5C 127.167,23.1667 127.833,22.8333 128.5,22.5 Z"/></g>
<g><path style="opacity:1" fill="#01fe50" d="M 151.5,23.5 C 151.5,24.1667 151.5,24.8333 151.5,25.5C 151.5,25.8333 151.5,26.1667 151.5,26.5C 150.609,27.1098 149.609,27.4431 148.5,27.5C 148.5,26.5 148.5,25.5 148.5,24.5C 149.391,23.8902 150.391,23.5569 151.5,23.5 Z"/></g>
<g><path style="opacity:1" fill="#0bf761" d="M 151.5,23.5 C 153.5,23.5 155.5,23.5 157.5,23.5C 157.5,24.1667 157.5,24.8333 157.5,25.5C 156.833,25.5 156.167,25.5 155.5,25.5C 154.167,25.5 152.833,25.5 151.5,25.5C 151.5,24.8333 151.5,24.1667 151.5,23.5 Z"/></g>
<g><path style="opacity:0.004" fill="#fefffe" d="M 15.5,25.5 C 14.8333,26.1667 14.8333,26.1667 15.5,25.5 Z"/></g>
<g><path style="opacity:1" fill="#21f25f" d="M 41.5,26.5 C 40.5655,27.5676 40.2322,28.901 40.5,30.5C 41.3065,31.7281 42.3065,32.7281 43.5,33.5C 41.5853,33.7845 39.9187,33.4511 38.5,32.5C 39.0431,32.44 39.3764,32.1067 39.5,31.5C 38.9724,29.6639 38.3058,27.9972 37.5,26.5C 37.5,26.1667 37.5,25.8333 37.5,25.5C 39.456,23.8249 40.7893,24.1582 41.5,26.5 Z"/></g>
<g><path style="opacity:1" fill="#3ded72" d="M 57.5,25.5 C 58.1667,25.5 58.8333,25.5 59.5,25.5C 61.153,25.6596 62.4863,26.3263 63.5,27.5C 61.2143,27.405 59.2143,26.7384 57.5,25.5 Z"/></g>
<g><path style="opacity:1" fill="#06fb57" d="M 59.5,25.5 C 59.5,25.1667 59.5,24.8333 59.5,24.5C 60.8333,24.5 62.1667,24.5 63.5,24.5C 64.7095,24.9321 65.7095,25.5987 66.5,26.5C 66.5,26.8333 66.5,27.1667 66.5,27.5C 65.6043,26.4937 64.9377,26.4937 64.5,27.5C 64.1667,27.5 63.8333,27.5 63.5,27.5C 62.4863,26.3263 61.153,25.6596 59.5,25.5 Z"/></g>
<g><path style="opacity:0.004" fill="#fefffe" d="M 81.5,25.5 C 82.8333,26.1667 82.8333,26.1667 81.5,25.5 Z"/></g>
<g><path style="opacity:1" fill="#02fe52" d="M 94.5,23.5 C 95.1667,23.5 95.8333,23.5 96.5,23.5C 96.5,24.8333 96.5,26.1667 96.5,27.5C 95.8333,27.5 95.1667,27.5 94.5,27.5C 94.5,26.1667 94.5,24.8333 94.5,23.5 Z"/></g>
<g><path style="opacity:1" fill="#09fa5b" d="M 118.5,22.5 C 118.953,24.5652 119.953,26.2318 121.5,27.5C 121.842,28.3382 122.508,28.6716 123.5,28.5C 123.5,28.8333 123.5,29.1667 123.5,29.5C 122.833,29.5 122.167,29.5 121.5,29.5C 120.391,29.4431 119.391,29.1098 118.5,28.5C 118.443,27.391 118.11,26.391 117.5,25.5C 117.263,24.209 117.596,23.209 118.5,22.5 Z"/></g>
<g><path style="opacity:0.694" fill="#3cfe95" d="M 155.5,25.5 C 156.167,25.5 156.833,25.5 157.5,25.5C 159.167,25.5 160.833,25.5 162.5,25.5C 162.158,26.3382 161.492,26.6716 160.5,26.5C 159.833,26.5 159.5,26.8333 159.5,27.5C 158.5,26.1667 157.5,26.1667 156.5,27.5C 156.167,26.8333 155.833,26.1667 155.5,25.5 Z"/></g>
<g><path style="opacity:0.094" fill="#4afc59" d="M 162.5,25.5 C 163.167,25.5 163.833,25.5 164.5,25.5C 164.443,26.609 164.11,27.609 163.5,28.5C 163.565,28.9382 163.399,29.2716 163,29.5C 162.583,28.244 161.75,27.5774 160.5,27.5C 160.5,27.1667 160.5,26.8333 160.5,26.5C 161.492,26.6716 162.158,26.3382 162.5,25.5 Z"/></g>
<g><path style="opacity:1" fill="#25eb66" d="M 16.5,25.5 C 17.1667,25.5 17.8333,25.5 18.5,25.5C 18.5,26.8333 18.5,28.1667 18.5,29.5C 17.8333,29.5 17.1667,29.5 16.5,29.5C 16.5,28.1667 16.5,26.8333 16.5,25.5 Z"/></g>
<g><path style="opacity:1" fill="#11fd5b" d="M 18.5,25.5 C 19.9733,26.0715 21.64,26.0715 23.5,25.5C 22.8902,26.391 22.5569,27.391 22.5,28.5C 21.209,28.2627 20.209,28.596 19.5,29.5C 19.1667,29.5 18.8333,29.5 18.5,29.5C 18.5,28.1667 18.5,26.8333 18.5,25.5 Z"/></g>
<g><path style="opacity:1" fill="#31f474" d="M 45.5,25.5 C 45.8333,25.5 46.1667,25.5 46.5,25.5C 46.5,26.5 46.5,27.5 46.5,28.5C 46.1667,29.5 45.5,30.1667 44.5,30.5C 44.1667,30.5 43.8333,30.5 43.5,30.5C 44.9418,29.1805 45.6085,27.5138 45.5,25.5 Z"/></g>
<g><path style="opacity:1" fill="#01fe5e" d="M 46.5,24.5 C 47.1667,24.5 47.8333,24.5 48.5,24.5C 48.5,25.8333 48.5,27.1667 48.5,28.5C 47.8333,28.5 47.1667,28.5 46.5,28.5C 46.5,27.5 46.5,26.5 46.5,25.5C 46.5,25.1667 46.5,24.8333 46.5,24.5 Z"/></g>
<g><path style="opacity:1" fill="#26f171" d="M 97.5,21.5 C 97.8333,21.5 98.1667,21.5 98.5,21.5C 97.1325,25.7383 98.4658,28.7383 102.5,30.5C 102.833,30.5 103.167,30.5 103.5,30.5C 102.432,31.4345 101.099,31.7678 99.5,31.5C 98.2112,30.3634 97.2112,29.0301 96.5,27.5C 96.5,26.1667 96.5,24.8333 96.5,23.5C 96.3284,22.5084 96.6618,21.8417 97.5,21.5 Z"/></g>
<g><path style="opacity:1" fill="#11f65a" d="M 124.5,24.5 C 125.338,24.8417 125.672,25.5084 125.5,26.5C 125.5,27.8333 125.5,29.1667 125.5,30.5C 125.5,30.8333 125.5,31.1667 125.5,31.5C 125.167,31.5 124.833,31.5 124.5,31.5C 124.672,30.5084 124.338,29.8417 123.5,29.5C 123.5,29.1667 123.5,28.8333 123.5,28.5C 123.433,27.0413 123.766,25.7079 124.5,24.5 Z"/></g>
<g><path style="opacity:1" fill="#3ced78" d="M 148.5,19.5 C 148.5,21.1667 148.5,22.8333 148.5,24.5C 148.5,25.5 148.5,26.5 148.5,27.5C 148.5,28.5 148.5,29.5 148.5,30.5C 148.167,30.5 147.833,30.5 147.5,30.5C 145.9,26.5484 146.234,22.8817 148.5,19.5 Z"/></g>
<g><path style="opacity:0.384" fill="#4ef884" d="M 151.5,25.5 C 152.833,25.5 154.167,25.5 155.5,25.5C 155.833,26.1667 156.167,26.8333 156.5,27.5C 155.417,27.4606 154.417,27.1272 153.5,26.5C 152.438,27.4246 152.438,28.4246 153.5,29.5C 151.952,29.1788 151.285,28.1788 151.5,26.5C 151.5,26.1667 151.5,25.8333 151.5,25.5 Z"/></g>
<g><path style="opacity:0.004" fill="#fefffe" d="M 0.5,27.5 C 1.83333,28.1667 1.83333,28.1667 0.5,27.5 Z"/></g>
<g><path style="opacity:0.995" fill="#0df857" d="M 26.5,25.5 C 27.1667,25.5 27.8333,25.5 28.5,25.5C 28.1568,27.4832 28.8235,28.8166 30.5,29.5C 31.1667,29.5 31.5,29.8333 31.5,30.5C 31.5,31.5 31.5,32.5 31.5,33.5C 29.7839,33.3713 28.1172,33.038 26.5,32.5C 26.5,32.1667 26.5,31.8333 26.5,31.5C 26.5,29.5 26.5,27.5 26.5,25.5 Z"/></g>
<g><path style="opacity:1" fill="#3ced72" d="M 36.5,25.5 C 36.8333,25.5 37.1667,25.5 37.5,25.5C 37.5,25.8333 37.5,26.1667 37.5,26.5C 36.2056,28.68 36.5389,30.68 38.5,32.5C 39.9187,33.4511 41.5853,33.7845 43.5,33.5C 38.7209,35.6933 35.7209,34.1933 34.5,29C 34.3866,27.3009 35.0532,26.1342 36.5,25.5 Z"/></g>
<g><path style="opacity:1" fill="#02fd54" d="M 37.5,26.5 C 38.3058,27.9972 38.9724,29.6639 39.5,31.5C 39.3764,32.1067 39.0431,32.44 38.5,32.5C 36.5389,30.68 36.2056,28.68 37.5,26.5 Z"/></g>
<g><path style="opacity:1" fill="#2cec6d" d="M 66.5,26.5 C 67.4511,27.9187 67.7845,29.5853 67.5,31.5C 67.1667,32.5 66.5,33.1667 65.5,33.5C 65.5,32.8333 65.5,32.1667 65.5,31.5C 66.4345,30.4324 66.7678,29.099 66.5,27.5C 66.5,27.1667 66.5,26.8333 66.5,26.5 Z"/></g>
<g><path style="opacity:1" fill="#36e879" d="M 83.5,21.5 C 84.3382,21.8417 84.6716,22.5084 84.5,23.5C 84.5,24.1667 84.5,24.8333 84.5,25.5C 84.5,27.8333 84.5,30.1667 84.5,32.5C 86.1667,32.5 87.8333,32.5 89.5,32.5C 88.0101,34.2798 86.0101,34.9465 83.5,34.5C 83.5,30.1667 83.5,25.8333 83.5,21.5 Z"/></g>
<g><path style="opacity:1" fill="#0ef95e" d="M 108.5,20.5 C 109.477,23.2869 109.81,26.2869 109.5,29.5C 109.672,30.4916 109.338,31.1583 108.5,31.5C 107.209,31.7373 106.209,31.404 105.5,30.5C 106.403,27.6085 106.736,24.6085 106.5,21.5C 107.167,21.1667 107.833,20.8333 108.5,20.5 Z"/></g>
<g><path style="opacity:1" fill="#44eb76" d="M 116.5,25.5 C 116.833,25.5 117.167,25.5 117.5,25.5C 118.11,26.391 118.443,27.391 118.5,28.5C 118.833,29.8333 119.167,31.1667 119.5,32.5C 119.5,32.8333 119.5,33.1667 119.5,33.5C 117.733,31.2084 116.733,28.5418 116.5,25.5 Z"/></g>
<g><path style="opacity:1" fill="#07fb55" d="M 46.5,28.5 C 47.1667,28.5 47.8333,28.5 48.5,28.5C 48.5,29.1667 48.8333,29.5 49.5,29.5C 49.4142,30.4959 49.7476,31.3292 50.5,32C 48.2251,32.405 46.2251,31.905 44.5,30.5C 45.5,30.1667 46.1667,29.5 46.5,28.5 Z"/></g>
<g><path style="opacity:1" fill="#16f266" d="M 93.5,10.5 C 93.8333,10.5 94.1667,10.5 94.5,10.5C 94.5,11.8333 94.5,13.1667 94.5,14.5C 94.5,15.5 94.5,16.5 94.5,17.5C 94.5,18.5 94.5,19.5 94.5,20.5C 94.5,21.5 94.5,22.5 94.5,23.5C 94.5,24.8333 94.5,26.1667 94.5,27.5C 94.5,29.1667 94.5,30.8333 94.5,32.5C 95.5,32.5 96.5,32.5 97.5,32.5C 97.5,32.8333 97.5,33.1667 97.5,33.5C 96.1667,33.5 94.8333,33.5 93.5,33.5C 93.5,28.8333 93.5,24.1667 93.5,19.5C 93.5,16.5 93.5,13.5 93.5,10.5 Z"/></g>
<g><path style="opacity:1" fill="#3fdd75" d="M 8.5,28.5 C 7.5,28.5 6.5,28.5 5.5,28.5C 5.5,29.5 5.5,30.5 5.5,31.5C 3.4199,29.8305 3.75324,28.1638 6.5,26.5C 7.5223,26.8555 8.18897,27.5222 8.5,28.5 Z"/></g>
<g><path style="opacity:1" fill="#2fef6d" d="M 8.5,28.5 C 10.717,29.3686 13.0504,29.702 15.5,29.5C 15.1583,30.3382 14.4916,30.6716 13.5,30.5C 12.5,30.5 11.5,30.5 10.5,30.5C 5.37055,30.719 5.37055,31.3856 10.5,32.5C 11.8333,32.5 13.1667,32.5 14.5,32.5C 16.2915,32.634 17.9582,32.3007 19.5,31.5C 19.8333,31.5 20.1667,31.5 20.5,31.5C 20.5,31.8333 20.5,32.1667 20.5,32.5C 19.1667,32.8333 19.1667,33.1667 20.5,33.5C 16.6888,34.6453 12.6888,34.8119 8.5,34C 7.05773,33.6232 6.05773,32.7899 5.5,31.5C 5.5,30.5 5.5,29.5 5.5,28.5C 6.5,28.5 7.5,28.5 8.5,28.5 Z"/></g>
<g><path style="opacity:0.988" fill="#26f75f" d="M 22.5,28.5 C 23.0164,29.7582 22.3497,30.7582 20.5,31.5C 20.1667,31.5 19.8333,31.5 19.5,31.5C 19.5,30.8333 19.5,30.1667 19.5,29.5C 20.209,28.596 21.209,28.2627 22.5,28.5 Z"/></g>
<g><path style="opacity:1" fill="#13f561" d="M 75.5,23.5 C 75.5,26.8333 75.5,30.1667 75.5,33.5C 74.209,33.7373 73.209,33.404 72.5,32.5C 72.8333,32.5 73.1667,32.5 73.5,32.5C 74.1667,29.5 74.8333,26.5 75.5,23.5 Z"/></g>
<g><path style="opacity:1" fill="#02fc59" d="M 94.5,27.5 C 95.1667,27.5 95.8333,27.5 96.5,27.5C 97.2112,29.0301 98.2112,30.3634 99.5,31.5C 98.5084,31.3284 97.8417,31.6618 97.5,32.5C 96.5,32.5 95.5,32.5 94.5,32.5C 94.5,30.8333 94.5,29.1667 94.5,27.5 Z"/></g>
<g><path style="opacity:1" fill="#07fc54" d="M 118.5,28.5 C 119.391,29.1098 120.391,29.4431 121.5,29.5C 121.833,30.8333 122.167,32.1667 122.5,33.5C 122.167,33.5 121.833,33.5 121.5,33.5C 121.167,33.5 120.833,33.5 120.5,33.5C 120.5,32.8333 120.167,32.5 119.5,32.5C 119.167,31.1667 118.833,29.8333 118.5,28.5 Z"/></g>
<g><path style="opacity:1" fill="#04fc56" d="M 138.5,28.5 C 138.5,28.8333 138.5,29.1667 138.5,29.5C 138.179,31.0481 137.179,31.7148 135.5,31.5C 135.5,30.8333 135.5,30.1667 135.5,29.5C 136.391,28.8902 137.391,28.5569 138.5,28.5 Z"/></g>
<g><path style="opacity:0.49" fill="#36ec7d" d="M 139.5,30.5 C 139.5,30.1667 139.5,29.8333 139.5,29.5C 141.781,29.0773 143.448,29.744 144.5,31.5C 144.672,32.4916 144.338,33.1583 143.5,33.5C 143.5,32.5 143.5,31.5 143.5,30.5C 142.167,30.5 140.833,30.5 139.5,30.5 Z"/></g>
<g><path style="opacity:1" fill="#01fe58" d="M 10.5,30.5 C 10.5,31.1667 10.5,31.8333 10.5,32.5C 5.37055,31.3856 5.37055,30.719 10.5,30.5 Z"/></g>
<g><path style="opacity:1" fill="#2cf167" d="M 57.5,29.5 C 56.5,32.1667 55.5,32.1667 54.5,29.5C 55.5,26.8333 56.5,26.8333 57.5,29.5 Z"/></g>
<g><path style="opacity:1" fill="#06fb59" d="M 66.5,27.5 C 66.7678,29.099 66.4345,30.4324 65.5,31.5C 64.5655,30.4324 64.2322,29.099 64.5,27.5C 64.9377,26.4937 65.6043,26.4937 66.5,27.5 Z"/></g>
<g><path style="opacity:1" fill="#02fd57" d="M 121.5,29.5 C 122.167,29.5 122.833,29.5 123.5,29.5C 124.338,29.8417 124.672,30.5084 124.5,31.5C 123.833,32.1667 123.167,32.8333 122.5,33.5C 122.167,32.1667 121.833,30.8333 121.5,29.5 Z"/></g>
<g><path style="opacity:1" fill="#0ffc60" d="M 138.5,29.5 C 138.833,29.5 139.167,29.5 139.5,29.5C 139.5,29.8333 139.5,30.1667 139.5,30.5C 139.611,31.1174 139.944,31.6174 140.5,32C 138.866,32.4935 137.199,32.6602 135.5,32.5C 135.5,32.1667 135.5,31.8333 135.5,31.5C 137.179,31.7148 138.179,31.0481 138.5,29.5 Z"/></g>
<g><path style="opacity:0.996" fill="#11f860" d="M 151.5,26.5 C 151.285,28.1788 151.952,29.1788 153.5,29.5C 153.5,29.8333 153.5,30.1667 153.5,30.5C 151.204,30.8041 150.871,31.8041 152.5,33.5C 150.57,33.2294 149.236,32.2294 148.5,30.5C 148.5,29.5 148.5,28.5 148.5,27.5C 149.609,27.4431 150.609,27.1098 151.5,26.5 Z"/></g>
<g><path style="opacity:1" fill="#33f278" d="M 153.5,30.5 C 153.5,30.1667 153.5,29.8333 153.5,29.5C 155.167,30.8333 156.833,30.8333 158.5,29.5C 158.167,30.5 157.5,31.1667 156.5,31.5C 155.391,31.4431 154.391,31.1098 153.5,30.5 Z"/></g>
<g><path style="opacity:1" fill="#06fc5c" d="M 158.5,29.5 C 159.5,29.5 160.5,29.5 161.5,29.5C 161.5,30.5 161.5,31.5 161.5,32.5C 160.041,32.4326 158.708,32.7659 157.5,33.5C 157.167,32.8333 156.833,32.1667 156.5,31.5C 157.5,31.1667 158.167,30.5 158.5,29.5 Z"/></g>
<g><path style="opacity:1" fill="#42f78a" d="M 159.5,27.5 C 159.833,27.5 160.167,27.5 160.5,27.5C 161.75,27.5774 162.583,28.244 163,29.5C 163.399,29.2716 163.565,28.9382 163.5,28.5C 164.833,29.8333 164.833,31.1667 163.5,32.5C 163.167,31.1667 162.833,31.1667 162.5,32.5C 162.167,32.5 161.833,32.5 161.5,32.5C 161.5,31.5 161.5,30.5 161.5,29.5C 160.5,29.5 159.5,29.5 158.5,29.5C 158.833,28.8333 159.167,28.1667 159.5,27.5 Z"/></g>
<g><path style="opacity:0.004" fill="#fefffe" d="M 168.5,30.5 C 168.5,30.8333 168.5,31.1667 168.5,31.5C 167.83,31.0187 167.83,30.6853 168.5,30.5 Z"/></g>
<g><path style="opacity:1" fill="#04fd59" d="M 10.5,30.5 C 11.5,30.5 12.5,30.5 13.5,30.5C 13.8333,31.1667 14.1667,31.8333 14.5,32.5C 13.1667,32.5 11.8333,32.5 10.5,32.5C 10.5,31.8333 10.5,31.1667 10.5,30.5 Z"/></g>
<g><path style="opacity:1" fill="#05fb52" d="M 15.5,29.5 C 15.8333,29.5 16.1667,29.5 16.5,29.5C 17.1667,29.5 17.8333,29.5 18.5,29.5C 18.8333,29.5 19.1667,29.5 19.5,29.5C 19.5,30.1667 19.5,30.8333 19.5,31.5C 17.9582,32.3007 16.2915,32.634 14.5,32.5C 14.1667,31.8333 13.8333,31.1667 13.5,30.5C 14.4916,30.6716 15.1583,30.3382 15.5,29.5 Z"/></g>
<g><path style="opacity:1" fill="#34ea6f" d="M 49.5,19.5 C 50.1667,23.1667 50.8333,26.8333 51.5,30.5C 51.5,31.5 51.5,32.5 51.5,33.5C 50.1667,33.5 48.8333,33.5 47.5,33.5C 46.2976,32.5946 44.9643,32.5946 43.5,33.5C 42.3065,32.7281 41.3065,31.7281 40.5,30.5C 41.5,30.5 42.5,30.5 43.5,30.5C 43.8333,30.5 44.1667,30.5 44.5,30.5C 46.2251,31.905 48.2251,32.405 50.5,32C 49.7476,31.3292 49.4142,30.4959 49.5,29.5C 49.5,26.1667 49.5,22.8333 49.5,19.5 Z"/></g>
<g><path style="opacity:1" fill="#42ec77" d="M 54.5,29.5 C 55.5,32.1667 56.5,32.1667 57.5,29.5C 59.4352,30.1495 61.4352,30.4828 63.5,30.5C 61.9581,31.1635 60.2914,31.8302 58.5,32.5C 60.7427,33.4742 63.076,33.8076 65.5,33.5C 61.6176,34.9787 57.7842,34.6453 54,32.5C 53.2599,31.2506 53.4265,30.2506 54.5,29.5 Z"/></g>
<g><path style="opacity:1" fill="#17f460" d="M 63.5,27.5 C 63.8333,27.5 64.1667,27.5 64.5,27.5C 64.2322,29.099 64.5655,30.4324 65.5,31.5C 65.5,32.1667 65.5,32.8333 65.5,33.5C 63.076,33.8076 60.7427,33.4742 58.5,32.5C 60.2914,31.8302 61.9581,31.1635 63.5,30.5C 63.5,29.5 63.5,28.5 63.5,27.5 Z"/></g>
<g><path style="opacity:0.988" fill="#0bfc59" d="M 84.5,25.5 C 85.1667,26.8333 85.8333,28.1667 86.5,29.5C 87.1667,29.5 87.8333,29.5 88.5,29.5C 88.5569,30.609 88.8902,31.609 89.5,32.5C 87.8333,32.5 86.1667,32.5 84.5,32.5C 84.5,30.1667 84.5,27.8333 84.5,25.5 Z"/></g>
<g><path style="opacity:1" fill="#11f862" d="M 103.5,30.5 C 104.167,30.5 104.833,30.5 105.5,30.5C 106.209,31.404 107.209,31.7373 108.5,31.5C 108.5,31.8333 108.5,32.1667 108.5,32.5C 105.167,32.5 101.833,32.5 98.5,32.5C 98.1667,32.5 97.8333,32.5 97.5,32.5C 97.8417,31.6618 98.5084,31.3284 99.5,31.5C 101.099,31.7678 102.432,31.4345 103.5,30.5 Z"/></g>
<g><path style="opacity:1" fill="#11f861" d="M 139.5,30.5 C 140.833,30.5 142.167,30.5 143.5,30.5C 143.5,31.5 143.5,32.5 143.5,33.5C 141.5,33.5 139.5,33.5 137.5,33.5C 136.508,33.6716 135.842,33.3382 135.5,32.5C 137.199,32.6602 138.866,32.4935 140.5,32C 139.944,31.6174 139.611,31.1174 139.5,30.5 Z"/></g>
<g><path style="opacity:0.094" fill="#43ee93" d="M 147.5,30.5 C 147.833,30.5 148.167,30.5 148.5,30.5C 149.236,32.2294 150.57,33.2294 152.5,33.5C 152.5,33.8333 152.5,34.1667 152.5,34.5C 149.633,34.6308 147.967,33.2974 147.5,30.5 Z"/></g>
<g><path style="opacity:1" fill="#0af959" d="M 153.5,30.5 C 154.391,31.1098 155.391,31.4431 156.5,31.5C 156.833,32.1667 157.167,32.8333 157.5,33.5C 155.833,33.5 154.167,33.5 152.5,33.5C 150.871,31.8041 151.204,30.8041 153.5,30.5 Z"/></g>
<g><path style="opacity:0.008" fill="#80ff7f" d="M 20.5,32.5 C 21.8333,33.1667 21.8333,33.1667 20.5,32.5 Z"/></g>
<g><path style="opacity:1" fill="#4deb7d" d="M 98.5,32.5 C 101.833,32.5 105.167,32.5 108.5,32.5C 108.631,33.2389 108.464,33.9056 108,34.5C 105.364,34.4549 102.53,34.2882 99.5,34C 98.944,33.6174 98.6107,33.1174 98.5,32.5 Z"/></g>
<g><path style="opacity:0.004" fill="#00ff00" d="M 162.5,32.5 C 162.833,32.5 163.167,32.5 163.5,32.5C 163.315,33.1701 162.981,33.1701 162.5,32.5 Z"/></g>
<g><path style="opacity:0.831" fill="#43e77a" d="M 31.5,30.5 C 33.1765,31.1834 33.8432,32.5168 33.5,34.5C 31.4727,34.6621 29.4727,34.4955 27.5,34C 26.944,33.6174 26.6107,33.1174 26.5,32.5C 28.1172,33.038 29.7839,33.3713 31.5,33.5C 31.5,32.5 31.5,31.5 31.5,30.5 Z"/></g>
<g><path style="opacity:0.651" fill="#5cdf89" d="M 51.5,30.5 C 52.4345,31.5676 52.7678,32.901 52.5,34.5C 50.5853,34.7845 48.9187,34.4511 47.5,33.5C 48.8333,33.5 50.1667,33.5 51.5,33.5C 51.5,32.5 51.5,31.5 51.5,30.5 Z"/></g>
<g><path style="opacity:0.561" fill="#53e290" d="M 92.5,19.5 C 92.8333,19.5 93.1667,19.5 93.5,19.5C 93.5,24.1667 93.5,28.8333 93.5,33.5C 94.8333,33.5 96.1667,33.5 97.5,33.5C 95.4833,34.874 93.4833,34.7074 91.5,33C 92.4667,28.5986 92.8,24.0986 92.5,19.5 Z"/></g>
<g><path style="opacity:1" fill="#2bea66" d="M 119.5,32.5 C 120.167,32.5 120.5,32.8333 120.5,33.5C 120.912,35.9726 119.912,37.3059 117.5,37.5C 118.6,36.3951 119.267,35.0618 119.5,33.5C 119.5,33.1667 119.5,32.8333 119.5,32.5 Z"/></g>
<g><path style="opacity:0.941" fill="#56dd8a" d="M 144.5,31.5 C 146.233,32.0076 146.566,32.841 145.5,34C 142.633,34.8007 139.966,34.6341 137.5,33.5C 139.5,33.5 141.5,33.5 143.5,33.5C 144.338,33.1583 144.672,32.4916 144.5,31.5 Z"/></g>
<g><path style="opacity:1" fill="#35f76c" d="M 161.5,32.5 C 161.5,32.8333 161.5,33.1667 161.5,33.5C 160.844,34.2778 160.011,34.9444 159,35.5C 156.901,34.7135 154.734,34.3801 152.5,34.5C 152.5,34.1667 152.5,33.8333 152.5,33.5C 154.167,33.5 155.833,33.5 157.5,33.5C 158.708,32.7659 160.041,32.4326 161.5,32.5 Z"/></g>
<g><path style="opacity:0.004" fill="#00ff00" d="M 161.5,33.5 C 161.833,33.5 162.167,33.5 162.5,33.5C 162.315,34.1701 161.981,34.1701 161.5,33.5 Z"/></g>
<g><path style="opacity:1" fill="#3df476" d="M 124.5,31.5 C 124.833,31.5 125.167,31.5 125.5,31.5C 125.065,34.1573 124.065,36.4907 122.5,38.5C 122.371,36.7839 122.038,35.1172 121.5,33.5C 121.833,33.5 122.167,33.5 122.5,33.5C 123.167,32.8333 123.833,32.1667 124.5,31.5 Z"/></g>
<g><path style="opacity:0.004" fill="#fefffe" d="M 164.5,36.5 C 165.833,37.1667 165.833,37.1667 164.5,36.5 Z"/></g>
<g><path style="opacity:0.004" fill="#fefffe" d="M 6.5,37.5 C 7.83333,38.1667 7.83333,38.1667 6.5,37.5 Z"/></g>
<g><path style="opacity:0.004" fill="#fefffe" d="M 32.5,37.5 C 33.8333,38.1667 33.8333,38.1667 32.5,37.5 Z"/></g>
<g><path style="opacity:0.004" fill="#fefffe" d="M 52.5,37.5 C 53.8333,38.1667 53.8333,38.1667 52.5,37.5 Z"/></g>
<g><path style="opacity:1" fill="#46ec7f" d="M 117.5,37.5 C 117.5,37.8333 117.5,38.1667 117.5,38.5C 116.5,38.5 115.5,38.5 114.5,38.5C 114.5,39.5 114.5,40.5 114.5,41.5C 113.833,41.5 113.167,41.5 112.5,41.5C 112.215,39.712 112.548,38.0453 113.5,36.5C 114.736,37.2458 116.07,37.5792 117.5,37.5 Z"/></g>
<g><path style="opacity:1" fill="#11f85e" d="M 120.5,33.5 C 120.833,33.5 121.167,33.5 121.5,33.5C 122.038,35.1172 122.371,36.7839 122.5,38.5C 122.5,39.1667 122.167,39.5 121.5,39.5C 120.167,39.1667 118.833,38.8333 117.5,38.5C 117.5,38.1667 117.5,37.8333 117.5,37.5C 119.912,37.3059 120.912,35.9726 120.5,33.5 Z"/></g>
<g><path style="opacity:0.004" fill="#fefffe" d="M 149.5,37.5 C 150.833,38.1667 150.833,38.1667 149.5,37.5 Z"/></g>
<g><path style="opacity:0.004" fill="#fefffe" d="M 79.5,38.5 C 80.8333,39.1667 80.8333,39.1667 79.5,38.5 Z"/></g>
<g><path style="opacity:0.004" fill="#fefffe" d="M 138.5,38.5 C 139.833,39.1667 139.833,39.1667 138.5,38.5 Z"/></g>
<g><path style="opacity:0.004" fill="#fefffe" d="M 65.5,39.5 C 66.8333,40.1667 66.8333,40.1667 65.5,39.5 Z"/></g>
<g><path style="opacity:0.004" fill="#fefffe" d="M 75.5,39.5 C 76.8333,40.1667 76.8333,40.1667 75.5,39.5 Z"/></g>
<g><path style="opacity:0.004" fill="#fefffe" d="M 107.5,39.5 C 108.833,40.1667 108.833,40.1667 107.5,39.5 Z"/></g>
<g><path style="opacity:1" fill="#2df76a" d="M 117.5,38.5 C 118.833,38.8333 120.167,39.1667 121.5,39.5C 121.5,39.8333 121.5,40.1667 121.5,40.5C 120.778,40.9175 120.278,41.5842 120,42.5C 118.091,42.3265 116.257,41.9932 114.5,41.5C 114.5,40.5 114.5,39.5 114.5,38.5C 115.5,38.5 116.5,38.5 117.5,38.5 Z"/></g>
<g><path style="opacity:0.004" fill="#fefffe" d="M 16.5,40.5 C 17.8333,41.1667 17.8333,41.1667 16.5,40.5 Z"/></g>
<g><path style="opacity:0.004" fill="#fe00ff" d="M 75.5,40.5 C 74.8333,41.1667 74.8333,41.1667 75.5,40.5 Z"/></g>
<g><path style="opacity:0.008" fill="#81ff7f" d="M 121.5,40.5 C 122.833,41.1667 122.833,41.1667 121.5,40.5 Z"/></g>
<g><path style="opacity:0.004" fill="#fefffe" d="M 153.5,40.5 C 154.833,41.1667 154.833,41.1667 153.5,40.5 Z"/></g>
<g><path style="opacity:0.004" fill="#fefffe" d="M 33.5,41.5 C 34.8333,42.1667 34.8333,42.1667 33.5,41.5 Z"/></g>
<g><path style="opacity:0.004" fill="#fefffe" d="M 37.5,41.5 C 38.8333,42.1667 38.8333,42.1667 37.5,41.5 Z"/></g>
<g><path style="opacity:0.004" fill="#feff00" d="M 85.5,41.5 C 86.8333,42.1667 86.8333,42.1667 85.5,41.5 Z"/></g>
<g><path style="opacity:0.004" fill="#fefffe" d="M 112.5,41.5 C 111.833,42.1667 111.833,42.1667 112.5,41.5 Z"/></g>
<g><path style="opacity:0.004" fill="#fefffe" d="M 135.5,41.5 C 136.833,42.1667 136.833,42.1667 135.5,41.5 Z"/></g>
<g><path style="opacity:0.004" fill="#fefffe" d="M 61.5,43.5 C 60.8333,42.1667 60.8333,42.1667 61.5,43.5 Z"/></g>
<g><path style="opacity:0.004" fill="#fefffe" d="M 83.5,43.5 C 82.8333,42.1667 82.8333,42.1667 83.5,43.5 Z"/></g>
</svg>
