<svg version="1.1" id="Layer_1" xmlns="http://www.w3.org/2000/svg" xmlns:xlink="http://www.w3.org/1999/xlink" x="0px" y="0px"
	 width="100%" viewBox="0 0 500 500" enable-background="new 0 0 500 500" xml:space="preserve">
<path fill="#000000" opacity="1.000000" stroke="none" 
	d="
M459.000000,501.000000 
	C306.000031,501.000000 153.500076,501.000000 1.000082,501.000000 
	C1.000055,334.333405 1.000055,167.666824 1.000027,1.000171 
	C167.666550,1.000114 334.333099,1.000114 500.999756,1.000057 
	C500.999817,167.666519 500.999817,334.333038 500.999908,500.999756 
	C487.166656,501.000000 473.333344,501.000000 459.000000,501.000000 
M111.775063,254.287521 
	C110.438400,253.890274 109.101738,253.493027 108.033531,252.445724 
	C115.402184,244.852463 117.254715,236.050156 113.159676,226.333832 
	C109.307083,217.192719 100.690147,212.099869 90.896637,212.588455 
	C80.324249,213.115891 73.107712,218.577881 69.342590,228.902054 
	C67.827332,233.056992 67.059273,233.096191 63.527374,229.390869 
	C57.690659,223.267548 50.620651,221.401413 42.617767,223.971085 
	C35.116062,226.379822 30.118380,233.102859 29.698128,240.666382 
	C29.223780,249.203537 33.110760,255.845322 40.779282,259.636993 
	C41.987442,260.234375 43.161583,260.900543 44.351460,261.534912 
	C44.189785,262.082825 44.028111,262.630737 43.866436,263.178650 
	C40.320621,262.487518 36.774803,261.796387 32.235649,260.911621 
	C34.437267,265.255096 36.095142,268.525818 37.571098,271.437683 
	C40.092834,270.619171 41.899727,270.032684 44.911419,269.055145 
	C44.911419,277.834198 44.911419,285.418427 45.115166,293.596802 
	C46.711399,293.785950 48.307632,293.975098 50.141468,294.192413 
	C50.054371,295.843018 49.978531,297.280212 49.884525,299.061676 
	C44.867889,299.962555 40.040367,301.174500 35.143677,301.611603 
	C30.258963,302.047699 25.304932,301.707275 19.819105,301.707275 
	C20.276415,304.837921 20.568501,306.837494 20.957626,309.501373 
	C30.309359,306.713562 38.965317,303.843811 47.788521,301.645172 
	C51.326382,300.763611 52.583481,299.313293 52.572052,295.159088 
	C54.016815,294.717743 55.458817,293.903900 56.906773,293.893158 
	C70.169067,293.794769 83.432396,293.835815 96.695427,293.836121 
	C101.621979,293.836243 106.548538,293.836182 112.012787,293.836182 
	C112.012787,287.524200 112.012787,281.764862 112.815140,276.045197 
	C120.750977,274.784210 126.975922,279.099884 133.522568,283.117432 
	C133.522568,272.359100 133.522568,262.324738 133.522568,251.384613 
	C126.655556,255.935532 120.108498,259.859161 111.940048,257.245544 
	C111.870010,256.499390 111.799973,255.753250 111.775063,254.287521 
M170.933502,266.691589 
	C172.324829,270.065796 173.540680,273.529388 175.192337,276.770935 
	C175.869705,278.100372 177.510513,279.811707 178.671585,279.781006 
	C179.877411,279.749115 181.495651,278.037781 182.129929,276.684357 
	C184.750198,271.093140 187.065750,265.359161 189.493271,259.677673 
	C189.842957,259.763275 190.192642,259.848907 190.542328,259.934509 
	C190.542328,266.510590 190.542328,273.086670 190.542328,279.824615 
	C193.422577,279.824615 195.852997,279.824615 198.517776,279.824615 
	C198.517776,268.067322 198.517776,256.505463 198.517776,244.987549 
	C188.969727,243.211731 188.686050,243.360977 185.362183,251.410263 
	C183.294708,256.416931 181.199005,261.411987 178.715164,267.374420 
	C176.311340,261.665619 174.334732,256.987732 172.371094,252.304413 
	C168.901169,244.028488 168.904282,244.023285 159.944458,244.465042 
	C159.665192,244.478821 159.398880,244.755554 158.950470,245.009338 
	C158.950470,256.523132 158.950470,268.122620 158.950470,279.799561 
	C161.548706,279.799561 163.983475,279.799561 166.996048,279.799561 
	C166.996048,272.834106 166.996048,266.068146 166.996048,259.302185 
	C167.248734,259.287231 167.501419,259.272247 167.754105,259.257294 
	C168.723679,261.494293 169.693253,263.731323 170.933502,266.691589 
M409.124329,253.567902 
	C409.124329,262.312164 409.124329,271.056396 409.124329,279.949707 
	C416.227997,279.949707 422.715668,280.227539 429.159241,279.815643 
	C431.809937,279.646210 434.787903,278.534485 436.881287,276.905731 
	C442.067139,272.870880 440.697327,267.200043 433.430298,262.017334 
	C437.252563,259.657501 440.404541,256.396973 438.569153,251.913818 
	C437.461945,249.209457 434.497406,245.824493 431.947083,245.424286 
	C424.528564,244.260223 416.898254,244.445953 409.124329,244.091965 
	C409.124329,247.618774 409.124329,250.105774 409.124329,253.567902 
M352.979736,256.715179 
	C353.534027,255.978226 354.664764,255.133850 354.550659,254.521439 
	C353.695374,249.931656 351.132141,246.204086 346.557709,245.240860 
	C342.095764,244.301331 337.295471,243.960144 332.784210,244.509628 
	C326.669525,245.254425 323.233734,249.275696 323.073273,254.202805 
	C322.915833,259.037842 325.688629,262.127899 332.002289,263.993713 
	C333.748047,264.509613 335.572144,264.755249 337.350067,265.168732 
	C339.938080,265.770660 342.594879,266.206268 345.060760,267.139648 
	C346.031067,267.506927 347.152374,269.034698 347.134674,270.014648 
	C347.116943,270.996582 345.965118,272.368713 344.963562,272.854156 
	C339.376953,275.561859 333.349609,273.452087 330.351837,268.012573 
	C327.851501,268.012573 325.397919,268.012573 321.213074,268.012573 
	C323.716156,271.815216 325.094910,275.295746 327.611206,277.443542 
	C332.823364,281.892426 345.638855,281.798859 351.386993,277.945251 
	C357.487854,273.855164 357.161987,265.340698 350.635590,262.013214 
	C348.454132,260.901001 345.947388,260.379517 343.545013,259.759705 
	C340.331177,258.930511 336.996216,258.502411 333.861267,257.457916 
	C331.501678,256.671722 330.260406,254.836166 332.333130,252.479187 
	C334.769043,249.709274 344.010468,250.145477 345.369659,253.542389 
	C346.880096,257.317352 349.447876,256.684937 352.979736,256.715179 
M238.089905,266.583832 
	C238.095642,263.769897 238.348587,260.930298 238.060104,258.146881 
	C237.240784,250.241409 231.649612,244.831924 223.771210,244.029160 
	C210.506912,242.677612 202.436401,250.402390 203.211334,263.708191 
	C203.794907,273.727814 209.049911,279.430603 218.744141,280.564484 
	C228.482483,281.703522 235.294037,277.042725 238.089905,266.583832 
M471.345856,246.760483 
	C470.760010,245.958359 470.186981,244.468948 469.586456,244.457779 
	C461.328522,244.304123 453.066803,244.354111 444.617279,244.354111 
	C444.617279,256.534698 444.617279,268.097382 444.617279,279.722961 
	C453.896515,279.722961 462.919708,279.722961 471.875183,279.722961 
	C471.875183,277.323334 471.875183,275.236969 471.875183,272.766479 
	C465.334045,272.766479 459.069397,272.766479 452.943970,272.766479 
	C452.943970,270.254486 452.943970,268.139801 452.943970,265.510864 
	C458.574677,265.510864 463.973297,265.510864 469.374390,265.510864 
	C469.374390,262.912872 469.374390,260.867706 469.374390,258.454559 
	C463.753784,258.454559 458.486755,258.454559 452.980957,258.454559 
	C452.980957,256.011597 452.980957,253.954590 452.980957,251.433929 
	C459.149994,251.433929 465.053925,251.433929 471.124634,251.433929 
	C471.216553,249.846634 471.282349,248.710419 471.345856,246.760483 
M309.443115,244.358307 
	C303.822723,244.358307 298.202362,244.358307 292.356323,244.358307 
	C292.356323,256.457764 292.356323,268.019745 292.356323,279.742920 
	C301.627747,279.742920 310.684448,279.742920 319.682068,279.742920 
	C319.682068,277.394653 319.682068,275.330566 319.682068,272.929840 
	C313.113586,272.929840 306.828461,272.929840 300.655212,272.929840 
	C300.655212,270.356445 300.655212,268.137115 300.655212,265.547485 
	C306.272949,265.547485 311.541565,265.547485 317.064819,265.547485 
	C317.064819,263.083801 317.064819,261.010986 317.064819,258.380493 
	C311.441864,258.380493 306.041626,258.380493 300.533691,258.380493 
	C300.533691,255.908676 300.533691,253.995667 300.533691,251.444122 
	C306.787994,251.444122 312.822601,251.444122 318.716675,251.444122 
	C318.716675,248.725662 318.716675,246.671326 318.716675,244.358307 
	C315.718567,244.358307 313.069855,244.358307 309.443115,244.358307 
M265.772034,268.404724 
	C268.556580,260.544891 271.341095,252.685059 274.183868,244.660843 
	C265.866180,244.041626 265.873138,244.044037 263.440186,251.056686 
	C261.536377,256.544250 259.612518,262.024841 257.697601,267.508545 
	C254.727173,261.977173 252.804672,256.560211 250.920761,251.129868 
	C248.385925,243.823166 248.398682,243.818741 240.075775,244.768585 
	C243.466797,254.168549 246.821884,263.482758 250.187210,272.793304 
	C252.970642,280.493988 252.975983,280.492065 261.607819,279.690430 
	C262.857025,276.230682 264.142639,272.670074 265.772034,268.404724 
M380.167542,275.939514 
	C383.912933,265.595917 387.658325,255.252289 391.468781,244.728958 
	C383.243073,244.038315 383.256378,244.042999 380.784332,251.064163 
	C378.804474,256.687378 376.787140,262.297363 374.406769,268.979034 
	C371.985077,262.043396 369.959290,256.273682 367.956055,250.496140 
	C365.528931,243.496017 365.179169,243.301895 357.432312,245.150787 
	C361.289307,255.749146 365.227295,266.278351 368.907410,276.896973 
	C369.777191,279.406616 370.992432,280.292999 373.543182,280.060425 
	C376.199371,279.818237 379.410217,280.918610 380.167542,275.939514 
M394.408386,258.509460 
	C394.408386,265.604340 394.408386,272.699219 394.408386,279.704163 
	C397.518616,279.704163 400.081543,279.704163 402.579132,279.704163 
	C402.579132,267.828796 402.579132,256.298004 402.579132,244.720749 
	C399.741272,244.720749 397.221436,244.720749 394.408447,244.720749 
	C394.408447,249.252655 394.408447,253.384277 394.408386,258.509460 
M285.878204,274.358398 
	C285.878204,264.468842 285.878204,254.579269 285.878204,244.568787 
	C282.789032,244.568787 280.375031,244.568787 277.408386,244.568787 
	C277.408386,250.578979 277.408386,256.343079 277.408386,262.107208 
	C277.408386,268.016693 277.408386,273.926147 277.408386,279.852539 
	C280.509674,279.852539 282.952637,279.852539 285.673981,279.852539 
	C285.747406,278.223541 285.812805,276.772461 285.878204,274.358398 
z"/>
<path fill="#FAF700" opacity="1.000000" stroke="none" 
	d="
M112.012787,276.005524 
	C112.012787,281.764862 112.012787,287.524200 112.012787,293.836182 
	C106.548538,293.836182 101.621979,293.836243 96.695427,293.836121 
	C83.432396,293.835815 70.169067,293.794769 56.906773,293.893158 
	C55.458817,293.903900 54.016815,294.717743 52.045956,295.380493 
	C50.477108,291.786102 47.354004,293.259460 44.911419,293.002625 
	C44.911419,285.418427 44.911419,277.834198 44.911419,269.055145 
	C41.899727,270.032684 40.092834,270.619171 37.571098,271.437683 
	C36.095142,268.525818 34.437267,265.255096 32.235649,260.911621 
	C36.774803,261.796387 40.320621,262.487518 43.866436,263.178650 
	C44.028111,262.630737 44.189785,262.082825 44.351460,261.534912 
	C43.161583,260.900543 41.987442,260.234375 40.779282,259.636993 
	C33.110760,255.845322 29.223780,249.203537 29.698128,240.666382 
	C30.118380,233.102859 35.116062,226.379822 42.617767,223.971085 
	C50.620651,221.401413 57.690659,223.267548 63.527374,229.390869 
	C67.059273,233.096191 67.827332,233.056992 69.342590,228.902054 
	C73.107712,218.577881 80.324249,213.115891 90.896637,212.588455 
	C100.690147,212.099869 109.307083,217.192719 113.159676,226.333832 
	C117.254715,236.050156 115.402184,244.852463 107.711601,253.008484 
	C108.836426,254.049881 110.283180,254.528488 111.729935,255.007111 
	C111.799973,255.753250 111.870010,256.499390 111.681076,257.917297 
	C111.619003,264.394562 111.815895,270.200043 112.012787,276.005524 
M91.486496,223.197891 
	C90.193817,223.461472 88.853294,223.586502 87.617073,224.013504 
	C83.162010,225.552307 80.483055,228.680435 79.798332,233.366379 
	C79.084076,238.254440 80.777336,242.235886 84.890976,244.938278 
	C88.990341,247.631348 93.378006,247.670456 97.549843,245.118805 
	C101.910782,242.451492 103.919106,238.420135 103.051903,233.306183 
	C102.032524,227.294724 98.095993,224.225983 91.486496,223.197891 
M39.889584,238.511368 
	C37.708332,247.218369 45.538452,252.051376 51.095390,250.608292 
	C55.504971,249.463165 58.934109,245.570343 58.681892,241.278366 
	C58.413128,236.704926 56.069382,233.427551 51.525974,232.137268 
	C46.807438,230.797256 43.197937,232.655167 39.889584,238.511368 
M72.932877,253.863998 
	C73.812553,253.762512 74.692238,253.661026 77.084236,253.385086 
	C73.914047,250.850403 71.951775,248.303177 69.545822,247.774307 
	C68.359039,247.513397 66.352776,250.980423 63.704117,253.863480 
	C67.658035,253.863480 69.885971,253.863480 72.932877,253.863998 
z"/>
<path fill="#F5F5F5" opacity="1.000000" stroke="none" 
	d="
M170.798157,266.329956 
	C169.693253,263.731323 168.723679,261.494293 167.754105,259.257294 
	C167.501419,259.272247 167.248734,259.287231 166.996048,259.302185 
	C166.996048,266.068146 166.996048,272.834106 166.996048,279.799561 
	C163.983475,279.799561 161.548706,279.799561 158.950470,279.799561 
	C158.950470,268.122620 158.950470,256.523132 158.950470,245.009338 
	C159.398880,244.755554 159.665192,244.478821 159.944458,244.465042 
	C168.904282,244.023285 168.901169,244.028488 172.371094,252.304413 
	C174.334732,256.987732 176.311340,261.665619 178.715164,267.374420 
	C181.199005,261.411987 183.294708,256.416931 185.362183,251.410263 
	C188.686050,243.360977 188.969727,243.211731 198.517776,244.987549 
	C198.517776,256.505463 198.517776,268.067322 198.517776,279.824615 
	C195.852997,279.824615 193.422577,279.824615 190.542328,279.824615 
	C190.542328,273.086670 190.542328,266.510590 190.542328,259.934509 
	C190.192642,259.848907 189.842957,259.763275 189.493271,259.677673 
	C187.065750,265.359161 184.750198,271.093140 182.129929,276.684357 
	C181.495651,278.037781 179.877411,279.749115 178.671585,279.781006 
	C177.510513,279.811707 175.869705,278.100372 175.192337,276.770935 
	C173.540680,273.529388 172.324829,270.065796 170.798157,266.329956 
z"/>
<path fill="#F5F5F5" opacity="1.000000" stroke="none" 
	d="
M409.124329,253.080322 
	C409.124329,250.105774 409.124329,247.618774 409.124329,244.091965 
	C416.898254,244.445953 424.528564,244.260223 431.947083,245.424286 
	C434.497406,245.824493 437.461945,249.209457 438.569153,251.913818 
	C440.404541,256.396973 437.252563,259.657501 433.430298,262.017334 
	C440.697327,267.200043 442.067139,272.870880 436.881287,276.905731 
	C434.787903,278.534485 431.809937,279.646210 429.159241,279.815643 
	C422.715668,280.227539 416.227997,279.949707 409.124329,279.949707 
	C409.124329,271.056396 409.124329,262.312164 409.124329,253.080322 
M417.030060,270.512817 
	C417.649933,271.383240 418.210571,272.945160 418.899994,273.004242 
	C421.862335,273.258209 424.942291,273.464691 427.816498,272.883179 
	C429.336426,272.575653 430.522217,270.616608 431.858856,269.403168 
	C430.629547,268.078918 429.544891,265.832062 428.142395,265.612091 
	C424.633057,265.061737 420.979614,265.430481 417.002167,265.430481 
	C417.002167,266.992065 417.002167,268.283173 417.030060,270.512817 
M417.060425,258.401367 
	C420.269379,258.645966 423.533203,259.334442 426.664093,258.947449 
	C428.223328,258.754700 429.539032,256.591736 430.964905,255.320007 
	C429.570404,253.974350 428.350464,251.801331 426.743591,251.462326 
	C423.772644,250.835571 420.575012,251.283066 417.002411,251.283066 
	C417.002411,253.587585 417.002411,255.522903 417.060425,258.401367 
z"/>
<path fill="#F4F4F4" opacity="1.000000" stroke="none" 
	d="
M352.574188,256.718811 
	C349.447876,256.684937 346.880096,257.317352 345.369659,253.542389 
	C344.010468,250.145477 334.769043,249.709274 332.333130,252.479187 
	C330.260406,254.836166 331.501678,256.671722 333.861267,257.457916 
	C336.996216,258.502411 340.331177,258.930511 343.545013,259.759705 
	C345.947388,260.379517 348.454132,260.901001 350.635590,262.013214 
	C357.161987,265.340698 357.487854,273.855164 351.386993,277.945251 
	C345.638855,281.798859 332.823364,281.892426 327.611206,277.443542 
	C325.094910,275.295746 323.716156,271.815216 321.213074,268.012573 
	C325.397919,268.012573 327.851501,268.012573 330.351837,268.012573 
	C333.349609,273.452087 339.376953,275.561859 344.963562,272.854156 
	C345.965118,272.368713 347.116943,270.996582 347.134674,270.014648 
	C347.152374,269.034698 346.031067,267.506927 345.060760,267.139648 
	C342.594879,266.206268 339.938080,265.770660 337.350067,265.168732 
	C335.572144,264.755249 333.748047,264.509613 332.002289,263.993713 
	C325.688629,262.127899 322.915833,259.037842 323.073273,254.202805 
	C323.233734,249.275696 326.669525,245.254425 332.784210,244.509628 
	C337.295471,243.960144 342.095764,244.301331 346.557709,245.240860 
	C351.132141,246.204086 353.695374,249.931656 354.550659,254.521439 
	C354.664764,255.133850 353.534027,255.978226 352.574188,256.718811 
z"/>
<path fill="#F6F6F6" opacity="1.000000" stroke="none" 
	d="
M238.041977,266.988342 
	C235.294037,277.042725 228.482483,281.703522 218.744141,280.564484 
	C209.049911,279.430603 203.794907,273.727814 203.211334,263.708191 
	C202.436401,250.402390 210.506912,242.677612 223.771210,244.029160 
	C231.649612,244.831924 237.240784,250.241409 238.060104,258.146881 
	C238.348587,260.930298 238.095642,263.769897 238.041977,266.988342 
M218.972153,251.088440 
	C211.816269,253.850937 208.914825,264.468750 213.873108,270.351562 
	C214.954575,271.634705 216.744675,272.659149 218.390808,273.067566 
	C224.607132,274.609863 229.270187,271.222351 229.998062,264.930908 
	C231.054626,255.798203 227.782776,251.341125 218.972153,251.088440 
z"/>
<path fill="#EFEFEF" opacity="1.000000" stroke="none" 
	d="
M471.346985,247.167343 
	C471.282349,248.710419 471.216553,249.846634 471.124634,251.433929 
	C465.053925,251.433929 459.149994,251.433929 452.980957,251.433929 
	C452.980957,253.954590 452.980957,256.011597 452.980957,258.454559 
	C458.486755,258.454559 463.753784,258.454559 469.374390,258.454559 
	C469.374390,260.867706 469.374390,262.912872 469.374390,265.510864 
	C463.973297,265.510864 458.574677,265.510864 452.943970,265.510864 
	C452.943970,268.139801 452.943970,270.254486 452.943970,272.766479 
	C459.069397,272.766479 465.334045,272.766479 471.875183,272.766479 
	C471.875183,275.236969 471.875183,277.323334 471.875183,279.722961 
	C462.919708,279.722961 453.896515,279.722961 444.617279,279.722961 
	C444.617279,268.097382 444.617279,256.534698 444.617279,244.354111 
	C453.066803,244.354111 461.328522,244.304123 469.586456,244.457779 
	C470.186981,244.468948 470.760010,245.958359 471.346985,247.167343 
z"/>
<path fill="#F4F4F4" opacity="1.000000" stroke="none" 
	d="
M309.932129,244.358307 
	C313.069855,244.358307 315.718567,244.358307 318.716675,244.358307 
	C318.716675,246.671326 318.716675,248.725662 318.716675,251.444122 
	C312.822601,251.444122 306.787994,251.444122 300.533691,251.444122 
	C300.533691,253.995667 300.533691,255.908676 300.533691,258.380493 
	C306.041626,258.380493 311.441864,258.380493 317.064819,258.380493 
	C317.064819,261.010986 317.064819,263.083801 317.064819,265.547485 
	C311.541565,265.547485 306.272949,265.547485 300.655212,265.547485 
	C300.655212,268.137115 300.655212,270.356445 300.655212,272.929840 
	C306.828461,272.929840 313.113586,272.929840 319.682068,272.929840 
	C319.682068,275.330566 319.682068,277.394653 319.682068,279.742920 
	C310.684448,279.742920 301.627747,279.742920 292.356323,279.742920 
	C292.356323,268.019745 292.356323,256.457764 292.356323,244.358307 
	C298.202362,244.358307 303.822723,244.358307 309.932129,244.358307 
z"/>
<path fill="#F4F4F4" opacity="1.000000" stroke="none" 
	d="
M265.600159,268.757080 
	C264.142639,272.670074 262.857025,276.230682 261.607819,279.690430 
	C252.975983,280.492065 252.970642,280.493988 250.187210,272.793304 
	C246.821884,263.482758 243.466797,254.168549 240.075775,244.768585 
	C248.398682,243.818741 248.385925,243.823166 250.920761,251.129868 
	C252.804672,256.560211 254.727173,261.977173 257.697601,267.508545 
	C259.612518,262.024841 261.536377,256.544250 263.440186,251.056686 
	C265.873138,244.044037 265.866180,244.041626 274.183868,244.660843 
	C271.341095,252.685059 268.556580,260.544891 265.600159,268.757080 
z"/>
<path fill="#F5F5F5" opacity="1.000000" stroke="none" 
	d="
M380.060730,276.329590 
	C379.410217,280.918610 376.199371,279.818237 373.543182,280.060425 
	C370.992432,280.292999 369.777191,279.406616 368.907410,276.896973 
	C365.227295,266.278351 361.289307,255.749146 357.432312,245.150787 
	C365.179169,243.301895 365.528931,243.496017 367.956055,250.496140 
	C369.959290,256.273682 371.985077,262.043396 374.406769,268.979034 
	C376.787140,262.297363 378.804474,256.687378 380.784332,251.064163 
	C383.256378,244.042999 383.243073,244.038315 391.468781,244.728958 
	C387.658325,255.252289 383.912933,265.595917 380.060730,276.329590 
z"/>
<path fill="#F5F300" opacity="1.000000" stroke="none" 
	d="
M112.413963,276.025360 
	C111.815895,270.200043 111.619003,264.394562 111.716049,258.292358 
	C120.108498,259.859161 126.655556,255.935532 133.522568,251.384613 
	C133.522568,262.324738 133.522568,272.359100 133.522568,283.117432 
	C126.975922,279.099884 120.750977,274.784210 112.413963,276.025360 
z"/>
<path fill="#E7E7E7" opacity="1.000000" stroke="none" 
	d="
M394.408417,258.012695 
	C394.408447,253.384277 394.408447,249.252655 394.408447,244.720749 
	C397.221436,244.720749 399.741272,244.720749 402.579132,244.720749 
	C402.579132,256.298004 402.579132,267.828796 402.579132,279.704163 
	C400.081543,279.704163 397.518616,279.704163 394.408386,279.704163 
	C394.408386,272.699219 394.408386,265.604340 394.408417,258.012695 
z"/>
<path fill="#E7E7E7" opacity="1.000000" stroke="none" 
	d="
M285.878235,274.839874 
	C285.812805,276.772461 285.747406,278.223541 285.673981,279.852539 
	C282.952637,279.852539 280.509674,279.852539 277.408386,279.852539 
	C277.408386,273.926147 277.408386,268.016693 277.408386,262.107208 
	C277.408386,256.343079 277.408386,250.578979 277.408386,244.568787 
	C280.375031,244.568787 282.789032,244.568787 285.878204,244.568787 
	C285.878204,254.579269 285.878204,264.468842 285.878235,274.839874 
z"/>
<path fill="#F5F300" opacity="1.000000" stroke="none" 
	d="
M45.013290,293.299713 
	C47.354004,293.259460 50.477108,291.786102 51.787971,295.772247 
	C52.583481,299.313293 51.326382,300.763611 47.788521,301.645172 
	C38.965317,303.843811 30.309359,306.713562 20.957626,309.501373 
	C20.568501,306.837494 20.276415,304.837921 19.819105,301.707275 
	C25.304932,301.707275 30.258963,302.047699 35.143677,301.611603 
	C40.040367,301.174500 44.867889,299.962555 49.884525,299.061676 
	C49.978531,297.280212 50.054371,295.843018 50.141468,294.192413 
	C48.307632,293.975098 46.711399,293.785950 45.013290,293.299713 
z"/>
<path fill="#F5F300" opacity="1.000000" stroke="none" 
	d="
M111.752502,254.647308 
	C110.283180,254.528488 108.836426,254.049881 107.577370,253.333527 
	C109.101738,253.493027 110.438400,253.890274 111.752502,254.647308 
z"/>
<path fill="#121200" opacity="1.000000" stroke="none" 
	d="
M91.876160,223.247025 
	C98.095993,224.225983 102.032524,227.294724 103.051903,233.306183 
	C103.919106,238.420135 101.910782,242.451492 97.549843,245.118805 
	C93.378006,247.670456 88.990341,247.631348 84.890976,244.938278 
	C80.777336,242.235886 79.084076,238.254440 79.798332,233.366379 
	C80.483055,228.680435 83.162010,225.552307 87.617073,224.013504 
	C88.853294,223.586502 90.193817,223.461472 91.876160,223.247025 
z"/>
<path fill="#121200" opacity="1.000000" stroke="none" 
	d="
M39.997066,238.151123 
	C43.197937,232.655167 46.807438,230.797256 51.525974,232.137268 
	C56.069382,233.427551 58.413128,236.704926 58.681892,241.278366 
	C58.934109,245.570343 55.504971,249.463165 51.095390,250.608292 
	C45.538452,252.051376 37.708332,247.218369 39.997066,238.151123 
z"/>
<path fill="#121200" opacity="1.000000" stroke="none" 
	d="
M72.523392,253.863739 
	C69.885971,253.863480 67.658035,253.863480 63.704117,253.863480 
	C66.352776,250.980423 68.359039,247.513397 69.545822,247.774307 
	C71.951775,248.303177 73.914047,250.850403 77.084236,253.385086 
	C74.692238,253.661026 73.812553,253.762512 72.523392,253.863739 
z"/>
<path fill="#0C0C0C" opacity="1.000000" stroke="none" 
	d="
M417.016113,270.043549 
	C417.002167,268.283173 417.002167,266.992065 417.002167,265.430481 
	C420.979614,265.430481 424.633057,265.061737 428.142395,265.612091 
	C429.544891,265.832062 430.629547,268.078918 431.858856,269.403137 
	C430.522217,270.616608 429.336426,272.575653 427.816498,272.883179 
	C424.942291,273.464691 421.862335,273.258209 418.899994,273.004242 
	C418.210571,272.945160 417.649933,271.383240 417.016113,270.043549 
z"/>
<path fill="#0C0C0C" opacity="1.000000" stroke="none" 
	d="
M417.031433,257.929810 
	C417.002411,255.522903 417.002411,253.587585 417.002411,251.283066 
	C420.575012,251.283066 423.772644,250.835571 426.743591,251.462326 
	C428.350464,251.801331 429.570404,253.974350 430.964905,255.320007 
	C429.539032,256.591736 428.223328,258.754700 426.664093,258.947449 
	C423.533203,259.334442 420.269379,258.645966 417.031433,257.929810 
z"/>
<path fill="#040404" opacity="1.000000" stroke="none" 
	d="
M219.374878,251.048370 
	C227.782776,251.341125 231.054626,255.798203 229.998062,264.930908 
	C229.270187,271.222351 224.607132,274.609863 218.390808,273.067566 
	C216.744675,272.659149 214.954575,271.634705 213.873108,270.351562 
	C208.914825,264.468750 211.816269,253.850937 219.374878,251.048370 
z"/>
</svg>